<svg width="540" height="812" viewBox="0 0 540 812" fill="none" xmlns="http://www.w3.org/2000/svg">
<g style="mix-blend-mode:plus-lighter" opacity="0.1" clip-path="url(#clip0_1_39)">
<path opacity="0.67" d="M661.159 41.7546C672.86 46.6371 684.229 52.2033 695.23 58.4693C706.137 64.9375 716.649 72.1857 726.753 80.2331C736.735 88.5888 746.29 97.7726 755.431 107.765C764.417 118.073 772.967 129.16 781.038 140.902C788.894 152.904 796.211 165.465 802.882 178.43C809.184 191.426 814.693 204.632 819.258 217.875C823.229 230.862 826.061 243.659 827.625 256.084C828.434 268.033 827.911 279.497 826.063 290.424C823.633 300.908 820.145 310.978 815.824 320.73C811.636 330.473 807.238 340.298 802.989 350.445C799.891 361.222 797.603 372.746 796.364 385.179C796.791 398.599 798.309 412.969 800.717 428.154C804.074 443.876 807.412 459.835 810.102 475.598C811.967 490.742 811.902 504.877 809.347 517.615C804.606 528.853 796.976 538.457 786.598 546.506C774.677 553.511 761.137 559.729 746.824 565.71C733.346 572.233 721.032 579.451 710.456 587.673C702.212 597.466 695.876 608.363 691.102 620.109C687.86 632.834 685.016 645.588 681.889 657.847C678.31 669.721 673.261 680.253 666.424 689.147C657.938 696.802 647.454 702.61 635.232 706.646C621.69 709.593 607.066 711.137 591.891 711.547C576.555 711.573 561.499 710.949 547.085 709.864C533.467 709.004 520.915 707.922 509.477 706.651C499.101 705.811 489.753 704.765 481.288 703.418C473.564 702.44 466.344 701.061 459.426 699.188C452.727 697.613 445.947 695.512 438.933 692.907C431.698 690.613 423.958 687.886 415.654 684.795C406.865 682.161 397.372 679.308 387.232 676.301C376.487 673.906 365.081 671.46 353.079 668.992C340.556 667.137 327.532 665.24 314.135 663.233C300.415 661.65 286.495 659.782 272.509 657.493C258.49 655.252 244.949 652.356 232.022 648.687C219.316 644.664 207.346 639.644 196.176 633.57C185.413 626.865 175.498 619.013 166.435 610.032C157.833 600.357 150.067 589.597 143.126 577.872C136.589 565.581 130.83 552.459 125.818 538.695C121.17 524.617 117.218 510.099 113.983 495.321C111.071 480.536 108.834 465.701 107.303 450.975C106.035 436.48 105.438 422.21 105.512 408.29C105.753 394.704 106.571 381.461 107.932 368.595C109.245 355.988 110.972 343.658 113.007 331.574C114.74 319.568 116.669 307.665 118.717 295.813C120.316 283.884 122.017 271.925 123.83 259.945C125.281 247.862 126.992 235.785 129.088 223.798C131.113 211.834 133.761 200.062 137.164 188.557C140.845 177.28 145.442 166.363 151.046 155.853C157.01 145.598 163.928 135.728 171.734 126.214C179.666 116.784 188.076 107.784 196.759 99.1474C205.22 90.3628 213.775 81.835 222.335 73.5479C230.517 65.0361 238.712 56.7971 246.935 48.9113C254.921 40.9227 263.116 33.435 271.58 26.5444C280.095 19.7855 289.07 13.7779 298.496 8.57299C308.209 3.66992 318.422 -0.356615 329.084 -3.51304C340.022 -6.37405 351.31 -8.40349 362.826 -9.66882C374.441 -10.7704 386.127 -11.2267 397.8 -11.0795C409.347 -10.974 420.776 -10.3774 432.018 -9.33454C443.055 -8.48438 453.915 -7.26506 464.58 -5.68946C475.087 -4.39962 485.475 -2.78557 495.796 -0.840866C506.072 0.753902 516.38 2.67613 526.736 4.92261C537.172 6.81919 547.74 9.04005 558.478 11.6109C569.341 13.8478 580.387 16.4573 591.597 19.468C602.948 22.2252 614.446 25.4286 626.032 29.1489C637.704 32.7184 649.43 36.8946 661.15 41.7482" stroke="url(#paint0_linear_1_39)" stroke-width="2.89375" stroke-linecap="round" stroke-dasharray="24.31 12.73"/>
<path opacity="0.25" d="M673.087 74.8984C684.052 80.181 694.678 86.106 704.931 92.6778C715.072 99.3974 724.808 106.826 734.088 114.955C743.2 123.305 751.826 132.376 759.924 142.107C767.797 152.06 775.084 162.614 781.73 173.671C788.057 184.864 793.648 196.415 798.421 208.204C802.741 219.94 806.127 231.74 808.472 243.421C810.249 254.875 810.915 266.07 810.416 276.908C809.383 287.414 807.256 297.544 804.135 307.3C800.819 316.893 796.85 326.313 792.445 335.694C788.492 345.342 784.634 355.325 781.17 365.823C778.836 377.072 777.284 389.13 776.594 402.043C777.191 415.827 778.512 430.36 780.289 445.442C782.545 460.813 784.444 476.117 785.461 490.957C785.538 505.045 783.777 517.975 779.784 529.422C773.949 539.448 765.694 547.878 755.173 554.813C743.442 560.835 730.406 566.087 716.727 571.057C703.744 576.567 691.728 582.62 681.115 589.543C672.447 597.923 665.409 607.315 659.786 617.502C655.588 628.722 651.971 640.076 648.406 651.092C644.747 661.964 640.152 671.694 634.307 679.986C627.257 687.223 618.617 692.707 608.466 696.426C597.101 699.024 584.622 700.084 571.407 699.833C557.712 698.988 543.902 697.258 530.347 694.865C517.134 692.498 504.594 689.798 492.872 686.86C481.889 684.307 471.773 681.625 462.479 678.795C453.846 676.435 445.808 673.902 438.22 671.157C430.931 668.841 423.78 666.267 416.613 663.406C409.36 660.986 401.829 658.299 393.934 655.366C385.667 652.906 376.87 650.263 367.52 647.449C357.685 645.183 347.253 642.784 336.281 640.254C324.845 638.243 312.938 636.05 300.654 633.645C288.077 631.57 275.276 629.138 262.374 626.207C249.445 623.33 236.924 619.817 224.915 615.589C213.141 611.088 202.027 605.694 191.646 599.388C181.669 592.604 172.511 584.814 164.19 576.089C156.335 566.803 149.348 556.62 143.204 545.609C137.552 534.157 132.722 522.021 128.718 509.348C125.151 496.424 122.376 483.143 120.385 469.669C118.759 456.153 117.874 442.616 117.711 429.161C117.817 415.85 118.577 402.729 119.96 389.876C121.429 377.218 123.404 364.812 125.816 352.692C128.109 340.672 130.677 328.844 133.464 317.168C135.899 305.458 138.45 293.806 141.054 282.18C143.235 270.423 145.472 258.65 147.829 246.91C149.873 235.064 152.17 223.307 154.837 211.714C157.496 200.188 160.759 188.958 164.719 178.11C168.963 167.52 174.071 157.38 180.071 147.768C186.439 138.42 193.665 129.547 201.682 121.125C209.835 112.793 218.378 104.943 227.141 97.4919C235.683 89.8736 244.272 82.5378 252.831 75.4542C260.996 68.1031 269.108 61.0156 277.175 54.2567C284.964 47.3464 292.849 40.8855 300.875 34.9669C308.913 29.1293 317.26 23.9757 325.948 19.6012C334.869 15.4752 344.221 12.198 353.958 9.77652C363.992 7.65236 374.372 6.3559 385.009 5.83358C395.856 5.5134 406.844 5.85121 417.895 6.81659C428.981 7.79368 440.025 9.2475 450.959 11.1547C461.829 12.8973 472.556 14.982 483.129 17.3856C493.623 19.5111 503.988 21.9024 514.25 24.5642C524.481 26.8833 534.681 29.4546 544.869 32.2921C555.106 34.7755 565.4 37.5485 575.767 40.6089C586.24 43.3571 596.818 46.446 607.489 49.9102C618.277 53.1434 629.15 56.8028 640.075 60.9671C651.074 64.9974 662.088 69.6204 673.077 74.8915" stroke="url(#paint1_linear_1_39)" stroke-width="2.89375" stroke-linecap="round" stroke-dasharray="25.46 18.52"/>
<path opacity="0.16" d="M681.256 107.828C691.441 113.437 701.234 119.595 710.584 126.273C719.838 133.081 728.604 140.462 736.831 148.386C744.858 156.491 752.313 165.143 759.124 174.264C765.66 183.547 771.498 193.238 776.574 203.253C781.293 213.329 785.158 223.605 788.134 233.959C790.671 244.259 792.242 254.496 792.808 264.591C792.935 274.524 792.066 284.232 790.248 293.664C788.115 302.964 785.194 312.064 781.604 321.004C778.08 330.046 774.224 339.155 770.245 348.463C766.854 358.257 763.708 368.55 761.021 379.446C759.326 391.142 758.24 403.585 757.795 416.758C758.243 430.631 759.045 445.018 759.94 459.652C760.971 474.341 761.402 488.716 760.825 502.4C759.294 515.224 756.079 526.811 750.939 536.909C744.256 545.677 735.59 552.953 725.104 558.813C713.693 563.885 701.231 568.228 688.242 572.26C675.843 576.778 664.218 581.744 653.749 587.406C644.865 594.42 637.358 602.317 631.107 610.936C626.147 620.626 621.844 630.509 617.855 640.204C614.011 649.977 609.675 658.829 604.537 666.48C598.603 673.316 591.484 678.563 583.182 682.164C573.836 684.707 563.461 685.673 552.301 685.241C540.508 684.086 528.362 681.885 516.155 678.826C503.927 675.597 492.012 671.874 480.595 667.8C469.558 663.974 459.142 659.993 449.391 655.909C440.079 652.291 431.328 648.604 423.058 644.87C415.033 641.634 407.272 638.319 399.643 634.904C391.99 632 384.236 628.98 376.317 625.834C368.109 623.187 359.571 620.427 350.646 617.534C341.323 615.124 331.555 612.577 321.372 609.874C310.794 607.58 299.831 605.079 288.565 602.29C277.05 599.776 265.34 596.866 253.573 593.452C241.769 590.082 230.353 586.131 219.428 581.533C208.709 576.746 198.627 571.195 189.248 564.872C180.241 558.184 172.032 550.685 164.664 542.396C157.756 533.71 151.717 524.272 146.562 514.19C141.88 503.766 138.075 492.796 135.14 481.411C132.64 469.82 130.971 457.949 130.12 445.922C129.617 433.843 129.867 421.721 130.819 409.666C131.989 397.659 133.768 385.776 136.086 374.063C138.45 362.404 141.228 350.902 144.332 339.57C147.269 328.202 150.409 316.917 153.672 305.72C156.611 294.385 159.592 283.055 162.623 271.737C165.264 260.253 167.978 248.772 170.806 237.372C173.396 225.876 176.261 214.539 179.482 203.444C182.747 192.477 186.573 181.868 191.045 171.732C195.81 161.877 201.351 152.577 207.692 143.853C214.378 135.438 221.821 127.545 229.952 120.165C238.224 112.888 246.799 106.128 255.54 99.7995C264.087 93.3053 272.64 87.0898 281.1 81.1445C289.199 74.9077 297.204 68.9247 305.084 63.2308C312.676 57.3218 320.261 51.8321 327.891 46.8068C335.464 41.7943 343.226 37.3989 351.217 33.716C359.371 30.2173 367.858 27.5048 376.656 25.605C385.739 23.9781 395.156 23.1538 404.825 23.106C414.749 23.276 424.875 24.1359 435.125 25.6182C445.52 27.1628 455.956 29.2297 466.371 31.7498C476.851 34.158 487.262 36.933 497.565 40.0122C507.892 42.8678 518.115 45.9697 528.233 49.3017C538.386 52.3436 548.473 55.5878 558.511 59.0493C568.606 62.1943 578.696 65.5779 588.781 69.2163C598.966 72.5594 609.183 76.2037 619.402 80.1845C629.719 83.9441 640.051 88.0966 650.361 92.7024C660.72 97.1975 671.038 102.221 681.238 107.813" stroke="url(#paint2_linear_1_39)" stroke-width="2.89375" stroke-linecap="round" stroke-dasharray="19.68 18.52"/>
<path opacity="0.82" d="M684.144 138.624C693.498 144.44 702.362 150.666 710.726 157.28C718.97 163.986 726.657 171.105 733.713 178.613C740.592 186.24 746.791 194.241 752.276 202.535C757.484 210.933 761.92 219.584 765.541 228.4C768.827 237.247 771.246 246.178 772.79 255.102C773.973 264.001 774.262 272.828 773.664 281.526C772.779 290.173 771.089 298.706 768.668 307.114C766.149 315.574 763.099 324.036 759.64 332.54C756.409 341.358 753.06 350.449 749.736 359.9C747.021 369.951 744.572 380.563 742.504 391.797C741.212 403.743 740.326 416.336 739.804 429.469C739.815 443.083 739.889 456.95 739.783 470.804C739.542 484.496 738.579 497.672 736.582 510.001C733.675 521.424 729.284 531.584 723.26 540.305C715.998 547.823 707.144 553.941 696.839 558.78C685.857 562.953 674.043 566.439 661.82 569.598C650.049 573.207 638.939 577.145 628.758 581.637C619.855 587.339 612.088 593.795 605.424 600.908C599.879 609.062 595.034 617.471 590.63 625.806C586.543 634.397 582.286 642.311 577.624 649.26C572.484 655.653 566.531 660.688 559.744 664.251C552.128 666.905 543.646 668.071 534.448 667.827C524.579 666.828 514.252 664.668 503.668 661.555C492.815 658.087 481.997 653.964 471.382 649.362C460.851 644.84 450.674 640.065 440.92 635.133C431.387 630.558 422.278 625.941 413.554 621.324C404.978 617.171 396.673 613.037 388.566 608.931C380.419 605.317 372.313 601.711 364.166 598.081C355.8 594.93 347.262 591.759 338.508 588.51C329.437 585.693 320.093 582.792 310.476 579.724C300.548 577.032 290.361 574.123 279.996 570.949C269.415 567.983 258.737 564.651 248.081 560.86C237.386 557.111 227.106 552.862 217.331 548.103C207.732 543.177 198.76 537.648 190.488 531.508C182.553 525.098 175.416 518.041 169.093 510.387C163.198 502.421 158.167 493.888 154.026 484.862C150.322 475.581 147.493 465.873 145.526 455.853C143.964 445.66 143.224 435.23 143.268 424.684C143.621 414.051 144.694 403.354 146.405 392.676C148.279 381.962 150.694 371.269 153.585 360.665C156.459 349.996 159.661 339.369 163.143 328.802C166.417 318.1 169.855 307.395 173.391 296.704C176.612 285.806 179.89 274.883 183.209 263.967C186.221 252.87 189.324 241.811 192.569 230.856C195.665 219.855 199.028 209.077 202.757 198.603C206.563 188.283 210.91 178.402 215.833 169.058C221.041 160.018 226.941 151.579 233.542 143.763C240.451 136.261 248.011 129.334 256.181 122.96C264.451 116.698 272.969 110.963 281.602 105.676C290.069 100.229 298.501 95.085 306.808 90.2059C314.814 85.0219 322.66 80.0705 330.34 75.3763C337.745 70.434 345.059 65.8374 352.323 61.6429C359.489 57.3851 366.73 53.6659 374.108 50.558C381.569 47.5629 389.275 45.2832 397.192 43.7359C405.359 42.4126 413.796 41.8615 422.478 42.0421C431.417 42.4384 440.584 43.5176 449.903 45.2405C459.437 47.0735 469.089 49.4362 478.783 52.2728C488.633 55.0981 498.49 58.2833 508.305 61.8133C518.231 65.1773 528.105 68.8125 537.911 72.6701C547.801 76.305 557.631 80.1376 567.391 84.1599C577.251 87.9264 587.059 91.8986 596.814 96.0766C606.678 100.023 616.482 104.216 626.227 108.673C636.074 112.972 645.838 117.592 655.494 122.574C665.199 127.473 674.773 132.809 684.135 138.616" stroke="url(#paint3_linear_1_39)" stroke-width="2.89375" stroke-linecap="round" stroke-dasharray="11.57 24.31"/>
<path opacity="0.29" d="M681.254 165.69C689.695 171.582 697.601 177.732 704.934 184.113C712.158 190.581 718.757 197.295 724.693 204.23C730.444 211.273 735.5 218.518 739.796 225.93C743.859 233.416 747.149 241.02 749.632 248.691C751.844 256.409 753.252 264.162 753.851 271.876C754.21 279.638 753.792 287.362 752.655 295.043C751.385 302.8 749.483 310.574 747.064 318.37C744.685 326.396 741.957 334.573 738.991 342.97C736.327 351.812 733.625 361.038 730.995 370.701C728.883 380.974 726.971 391.803 725.293 403.156C724.149 415.104 723.192 427.509 722.346 440.238C721.744 453.23 720.97 466.224 719.82 478.982C718.387 491.418 716.177 503.186 712.987 513.999C708.972 523.936 703.709 532.631 697.09 539.963C689.503 546.25 680.653 551.278 670.693 555.141C660.229 558.476 649.126 561.173 637.709 563.53C626.66 566.303 616.144 569.293 606.381 572.721C597.609 577.202 589.781 582.31 582.889 587.985C576.942 594.663 571.68 601.604 566.926 608.582C562.582 615.951 558.297 622.856 553.867 629.043C549.236 634.911 544.124 639.68 538.452 643.215C532.201 646.04 525.297 647.513 517.796 647.693C509.708 647.155 501.14 645.452 492.226 642.729C482.919 639.564 473.469 635.632 464.002 631.086C454.4 626.444 444.918 621.438 435.642 616.178C426.374 611.114 417.341 605.945 408.586 600.754C399.827 595.915 391.279 591.117 382.909 586.358C374.466 582.031 366.102 577.772 357.777 573.555C349.264 569.766 340.701 566.007 332.056 562.245C323.142 558.858 314.108 555.426 304.962 551.907C295.56 548.673 286.048 545.288 276.48 541.687C266.732 538.268 257.021 534.548 247.413 530.463C237.772 526.393 228.604 521.964 219.958 517.145C211.464 512.218 203.602 506.832 196.445 500.997C189.574 494.96 183.466 488.453 178.169 481.51C173.234 474.327 169.15 466.734 165.907 458.788C163.048 450.628 161.021 442.155 159.821 433.451C158.956 424.564 158.868 415.494 159.505 406.32C160.385 397 161.915 387.598 164.028 378.161C166.236 368.588 168.92 358.985 172.023 349.372C175.066 339.594 178.406 329.762 181.968 319.913C185.334 309.852 188.849 299.732 192.464 289.566C195.825 279.177 199.254 268.742 202.764 258.326C206.051 247.738 209.474 237.229 213.063 226.882C216.588 216.516 220.389 206.414 224.544 196.695C228.831 187.152 233.591 178.103 238.887 169.615C244.449 161.448 250.601 153.901 257.368 147.017C264.393 140.43 271.976 134.445 280.071 129.029C288.275 123.731 296.639 118.964 305.077 114.633C313.381 110.175 321.632 106.018 329.734 102.109C337.577 97.9194 345.248 93.9366 352.714 90.1753C359.928 86.1422 366.993 82.3902 373.954 78.9863C380.781 75.4218 387.6 72.3237 394.44 69.7262C401.335 67.1717 408.339 65.2274 415.498 63.928C422.848 62.7833 430.384 62.3337 438.124 62.5635C446.11 62.991 454.292 64.0732 462.639 65.7759C471.235 67.611 479.973 69.9921 488.792 72.8677C497.829 75.7926 506.933 79.1133 516.04 82.7944C525.33 86.4006 534.625 90.3018 543.862 94.4466C553.267 98.4503 562.632 102.665 571.9 107.065C581.322 111.291 590.68 115.702 599.932 120.29C609.322 124.703 618.614 129.333 627.767 134.171C637.023 138.881 646.129 143.856 655.053 149.111C664.037 154.295 672.779 159.813 681.237 165.689" stroke="url(#paint4_linear_1_39)" stroke-width="2.89375" stroke-linecap="round" stroke-dasharray="24.31 2.31"/>
<path opacity="0.44" d="M673.267 188.325C680.784 194.146 687.721 200.1 694.063 206.169C700.325 212.305 705.941 218.566 710.897 224.936C715.698 231.373 719.798 237.923 723.184 244.535C726.39 251.22 728.858 257.973 730.609 264.747C732.164 271.592 733.008 278.466 733.176 285.358C733.187 292.349 732.584 299.395 731.419 306.469C730.201 313.751 728.527 321.154 726.476 328.717C724.524 336.603 722.349 344.763 720.012 353.236C717.949 362.188 715.853 371.556 713.807 381.348C712.119 391.685 710.502 402.474 708.98 413.649C707.753 425.24 706.502 437.091 705.167 449.042C703.858 461.06 702.223 472.883 700.11 484.289C697.637 495.257 694.4 505.459 690.285 514.705C685.463 523.109 679.603 530.343 672.664 536.337C665.003 541.456 656.351 545.441 646.852 548.415C637.006 550.969 626.674 552.949 616.103 554.602C605.818 556.603 595.955 558.752 586.718 561.225C578.224 564.601 570.503 568.48 563.559 572.829C557.388 578.1 551.84 583.654 546.817 589.3C542.215 595.439 537.815 601.277 533.479 606.629C526.816 614.089 511.496 623.56 502.496 625.119C495.871 625.174 488.833 624.144 481.465 622.111C473.675 619.602 465.651 616.28 457.481 612.27C449.051 608.054 440.571 603.34 432.134 598.259C423.536 593.237 415.032 588.002 406.639 582.647C398.142 577.511 389.754 572.362 381.495 567.225C373.084 562.393 364.757 557.628 356.49 552.918C348.034 548.543 339.581 544.226 331.157 539.944C322.499 535.961 313.824 531.976 305.153 527.958C296.27 524.175 287.396 520.293 278.593 516.279C269.636 512.407 260.815 508.317 252.192 503.975C243.55 499.648 235.409 495.089 227.817 490.289C220.341 485.392 213.503 480.196 207.368 474.706C201.445 469.056 196.269 463.093 191.854 456.833C187.735 450.388 184.411 443.65 181.874 436.669C179.645 429.495 178.186 422.092 177.483 414.515C177.037 406.759 177.29 398.831 178.204 390.795C179.291 382.571 180.949 374.237 183.133 365.815C185.376 357.21 188.025 348.496 191.05 339.711C194 330.689 197.231 321.571 200.666 312.374C203.945 302.932 207.389 293.399 210.945 283.803C214.325 273.992 217.815 264.151 221.425 254.346C224.916 244.415 228.576 234.599 232.431 224.982C236.291 215.391 240.442 206.116 244.938 197.261C249.579 188.601 254.656 180.452 260.21 172.9C265.997 165.651 272.306 159.036 279.12 153.071C286.16 147.399 293.676 142.324 301.614 137.817C309.641 133.417 317.781 129.538 325.951 126.114C334.019 122.548 342.016 119.297 349.874 116.295C357.496 113.007 364.949 109.932 372.195 107.044C379.208 103.853 386.048 100.908 392.748 98.229C399.294 95.3462 405.763 92.8423 412.194 90.7294C421.849 87.7624 441.645 84.6059 451.935 84.5788C459.05 84.9008 466.32 85.83 473.731 87.3321C481.383 88.9809 489.172 91.1612 497.053 93.8356C505.174 96.5827 513.392 99.7586 521.64 103.316C530.117 106.879 538.613 110.756 547.098 114.912C555.78 118.996 564.43 123.316 573.019 127.836C581.774 132.264 590.463 136.867 599.034 141.657C607.749 146.328 616.34 151.177 624.756 156.214C633.288 161.156 641.627 166.301 649.717 171.651C657.867 176.967 665.732 182.518 673.259 188.316" stroke="url(#paint5_linear_1_39)" stroke-width="2.89375" stroke-linecap="round" stroke-dasharray="9.26 2.31"/>
<path opacity="0.47" d="M661.708 206.968C668.298 212.593 674.329 218.296 679.792 224.026C685.18 229.81 689.963 235.648 694.125 241.538C699.87 250.485 707.984 268.719 710.355 277.99C711.93 287.483 712.151 307.071 711.011 317.281C710.118 324.391 708.861 331.708 707.319 339.262C705.887 347.165 704.256 355.384 702.498 363.94C700.931 372.915 699.287 382.276 697.603 391.995C696.122 402.11 694.586 412.524 692.996 423.177C691.511 434.054 689.852 444.987 687.958 455.833C685.954 466.587 683.534 476.986 680.609 486.85C677.305 496.231 673.321 504.819 668.55 512.462C663.233 519.357 657.073 525.192 650.066 529.924C642.525 533.943 634.243 536.983 625.327 539.154C616.179 541.006 606.656 542.344 596.951 543.371C587.477 544.717 578.342 546.116 569.686 547.739C561.605 550.132 554.125 552.917 547.275 556.075C541.031 560.065 535.343 564.309 530.138 568.703C523.061 575.992 509.999 589.318 503.405 594.479C496.326 598.405 480.292 600.949 471.285 599.534C464.819 597.872 458.097 595.408 451.191 592.219C443.985 588.776 436.637 584.763 429.218 580.301C421.562 575.768 413.871 570.931 406.2 565.865C398.316 560.882 390.466 555.788 382.669 550.628C374.683 545.662 366.723 540.692 358.834 535.741C350.727 531.021 342.672 526.335 334.662 521.688C326.444 517.249 318.272 512.834 310.184 508.415C301.92 504.168 293.737 499.875 285.706 495.515C277.56 491.253 269.601 486.855 261.906 482.307C254.186 477.764 246.997 473.105 240.349 468.325C233.795 463.476 227.866 458.444 222.576 453.246C217.464 447.92 213.054 442.397 209.343 436.694C204.468 427.801 198.619 408.862 197.579 398.864C197.298 391.952 197.644 384.897 198.556 377.717C199.601 370.325 201.155 362.806 203.15 355.165C205.19 347.292 207.614 339.296 210.364 331.178C213.062 322.811 216.028 314.321 219.208 305.732C222.301 296.905 225.566 287.981 228.988 279.015C232.312 269.877 235.796 260.722 239.441 251.651C243.041 242.498 246.857 233.503 250.9 224.743C254.989 216.065 259.381 207.724 264.103 199.816C268.972 192.129 274.249 184.963 279.931 178.374C285.823 172.091 292.158 166.417 298.907 161.371C305.854 156.596 313.194 152.38 320.876 148.732C328.633 145.186 336.468 142.141 344.304 139.511C352.073 136.788 359.747 134.348 367.29 132.16C374.666 129.723 381.856 127.464 388.853 125.373C398.968 121.899 418.144 115.648 427.339 113.074C436.416 110.672 454.652 108.027 463.954 107.938C470.337 108.129 476.818 108.849 483.393 110.088C490.167 111.426 497.062 113.262 504.038 115.584C511.242 117.983 518.528 120.81 525.859 124.032C533.41 127.281 541.005 130.885 548.612 134.781C556.402 138.672 564.184 142.827 571.923 147.199C579.825 151.539 587.67 156.077 595.396 160.803C603.272 165.462 611.005 170.297 618.571 175.297C626.244 180.247 633.7 185.37 640.899 190.651C648.151 195.908 655.102 201.341 661.701 206.959" stroke="url(#paint6_linear_1_39)" stroke-width="2.89375" stroke-linecap="round" stroke-dasharray="18.52 6.94"/>
<path opacity="0.7" d="M648.381 223.101C654.097 228.469 659.302 233.875 663.999 239.306C670.683 247.531 681.232 264.239 685.089 272.753C688.253 281.451 691.883 299.423 692.467 308.773C692.674 315.244 692.476 321.877 691.925 328.71C691.389 335.78 690.563 343.106 689.488 350.687C688.473 358.575 687.276 366.758 685.913 375.24C684.641 384.035 683.232 393.11 681.698 402.417C680.22 411.963 678.598 421.67 676.786 431.445C674.957 441.258 672.854 450.986 670.427 460.467C667.837 469.737 664.798 478.566 661.259 486.808C657.385 494.55 652.915 501.534 647.797 507.639C642.258 513.108 636.06 517.638 629.204 521.228C621.979 524.244 614.203 526.444 605.962 527.898C597.567 529.134 588.9 529.926 580.081 530.416C571.428 531.186 563.06 531.95 555.046 532.859C547.455 534.404 540.331 536.227 533.712 538.345C524.701 542.714 509.304 553.054 502.556 558.419C496.163 563.802 483.368 572.004 476.643 574.341C469.422 575.498 453.547 573.462 444.905 570.414C438.809 567.904 432.546 564.813 426.167 561.22C419.54 557.497 412.814 553.383 406.028 548.964C399.012 544.528 391.958 539.883 384.887 535.083C377.621 530.366 370.342 525.563 363.092 520.699C355.648 515.96 348.229 511.218 340.865 506.455C333.325 501.846 325.84 497.216 318.48 492.587C310.961 488.075 303.558 483.53 296.349 478.942C289.048 474.428 281.957 469.833 275.151 465.124C268.332 460.438 262.008 455.709 256.205 450.934C250.473 446.099 245.311 441.188 240.739 436.187C234.395 428.471 225.058 412.279 222.086 403.774C219.976 394.895 218.875 376.192 219.751 366.373C220.593 359.587 221.888 352.648 223.58 345.578C225.31 338.29 227.4 330.855 229.784 323.299C232.166 315.525 234.809 307.624 237.699 299.634C240.53 291.447 243.584 283.199 246.835 274.936C250.052 266.557 253.47 258.213 257.109 249.976C260.741 241.729 264.617 233.669 268.746 225.873C272.965 218.198 277.474 210.888 282.299 204.007C287.269 197.35 292.589 191.196 298.272 185.608C304.13 180.292 310.357 175.551 316.943 171.391C323.676 167.48 330.728 164.108 338.062 161.242C345.475 158.477 352.919 156.187 360.353 154.289C367.736 152.313 375.041 150.622 382.223 149.146C389.274 147.467 396.162 145.96 402.883 144.602C412.63 142.237 431.104 137.954 439.92 136.173C448.545 134.417 465.597 132.438 474.123 132.369C482.827 132.75 500.736 135.791 509.956 138.454C516.302 140.432 522.712 142.809 529.163 145.573C535.806 148.378 542.472 151.539 549.155 155.007C556.017 158.496 562.862 162.258 569.673 166.289C576.633 170.294 583.54 174.539 590.348 178.972C597.278 183.381 604.089 187.99 610.724 192.753C617.455 197.496 623.982 202.412 630.268 207.468C636.606 212.518 642.649 217.731 648.375 223.092" stroke="url(#paint7_linear_1_39)" stroke-width="2.89375" stroke-linecap="round" stroke-dasharray="16.2 20.83"/>
<path opacity="0.35" d="M634.815 238.716C641.948 246.352 653.988 261.919 658.85 269.862C664.834 280.653 669.001 291.801 671.495 303.305C673.745 315.318 674.493 327.989 673.974 341.385C673.444 355.611 671.882 370.789 669.505 386.783C667.19 403.551 664.02 420.828 659.922 438.014C655.453 454.918 649.57 470.652 642.031 484.289C633.363 496.13 622.646 505.034 609.942 510.686C603.188 512.821 596.025 514.297 588.516 515.158C580.921 515.867 573.121 516.187 565.2 516.244C557.388 516.518 549.797 516.76 542.489 517.083C535.465 517.91 528.798 518.921 522.509 520.158C510.924 524.398 500.682 529.21 491.562 534.056C483.006 539.953 474.745 544.556 466.508 547.312C457.785 549.532 448.557 549.274 438.832 546.639C428.217 543.178 417.046 537.665 405.54 530.587C393.157 523.246 380.527 514.876 367.888 505.899C354.503 497.155 341.21 488.055 328.302 478.765C321.657 474.241 315.133 469.648 308.799 465.015C302.378 460.418 296.182 455.748 290.247 450.997C284.291 446.258 278.796 441.512 273.766 436.744C268.787 431.947 264.308 427.095 260.346 422.218C252.725 412.201 247.275 401.84 243.923 391.15C241.084 379.907 240.252 368.172 241.212 355.988C242.495 343.079 245.301 329.619 249.368 315.756C253.51 301.2 258.709 286.328 264.843 271.489C271.027 256.41 278.203 241.795 286.367 228.206C294.894 215.169 304.626 203.685 315.574 194.2C321.267 189.847 327.264 186.012 333.556 182.702C339.963 179.619 346.636 177.011 353.55 174.878C360.515 172.836 367.506 171.218 374.473 169.959C381.401 168.655 388.274 167.607 395.024 166.789C408.246 164.563 420.926 162.934 432.942 161.799C444.544 159.74 455.694 158.387 466.44 157.899C477.164 156.971 487.809 157.296 498.416 158.97C509.397 160.673 520.538 163.865 531.737 168.46C543.486 173.183 555.318 179.188 566.99 186.278C579.171 193.4 591.092 201.453 602.454 210.284C608.243 214.679 613.864 219.247 619.266 223.993C624.703 228.731 629.9 233.631 634.81 238.706" stroke="url(#paint8_linear_1_39)" stroke-width="2.89375" stroke-linecap="round" stroke-dasharray="28.94 15.05"/>
<path opacity="0.89" d="M621.73 255.622C630.047 265.167 636.906 275.101 642.312 285.331C647.519 295.734 651.251 306.623 653.622 317.97C655.791 329.723 656.691 342.147 656.466 355.195C656.126 368.801 654.77 383.096 652.472 397.81C650.031 412.838 646.575 427.897 642.043 442.412C637.036 456.347 630.66 468.901 622.811 479.431C614.112 488.404 603.789 494.886 591.967 498.685C579.521 501.257 566.007 501.928 551.887 501.246C538.106 501.288 525.086 501.358 513.127 501.916C502.09 504.341 492.084 507.244 483.008 510.286C474.454 514.477 466.311 517.901 458.398 520.132C450.279 522.283 441.945 522.646 433.368 521.132C424.17 519.084 414.56 515.24 404.693 509.861C394.094 504.169 383.248 497.31 372.36 489.57C360.86 481.871 349.414 473.566 338.293 464.819C326.777 456.239 315.788 447.235 305.672 437.857C295.495 428.51 286.928 419.06 280.05 409.509C273.454 399.744 268.657 389.681 265.629 379.363C262.967 368.609 262.013 357.422 262.595 345.874C263.478 333.78 265.732 321.25 269.19 308.469C272.818 295.244 277.55 281.906 283.263 268.786C289.163 255.653 296.097 243.136 304.013 231.685C312.302 220.839 321.697 211.474 332.141 203.917C343.025 197.24 354.921 192.348 367.657 189.262C380.571 186.514 393.456 185.107 406.05 184.665C418.402 183.671 430.329 183.232 441.697 183.233C452.758 182.391 463.389 182.094 473.595 182.403C483.728 182.168 493.681 182.858 503.432 184.56C513.417 186.109 523.405 188.854 533.314 192.784C543.61 196.718 553.879 201.837 563.95 208.005C574.389 214.187 584.564 221.334 594.254 229.336C604.146 237.303 613.387 246.076 621.725 255.612" stroke="url(#paint9_linear_1_39)" stroke-width="2.89375" stroke-linecap="round" stroke-dasharray="25.46 21.99"/>
<path opacity="0.88" d="M609.036 274.728C616.004 283.638 621.774 293.047 626.366 302.846C630.802 312.785 634.025 323.241 636.095 334.152C637.991 345.336 638.77 357.061 638.512 369.216C638.084 381.655 636.642 394.429 634.22 407.259C631.546 420.056 627.828 432.511 623.014 444.142C617.767 455.064 611.287 464.618 603.571 472.317C595.27 478.793 585.705 483.224 575.023 485.513C563.973 486.977 552.104 486.926 539.748 485.735C527.618 485.116 516 484.372 505.122 483.871C494.834 484.817 485.297 486.09 476.475 487.516C468.051 490.019 460.055 492.105 452.374 493.47C444.634 495.086 436.892 495.462 429.103 494.49C420.927 493.279 412.534 490.616 404.007 486.604C394.967 482.354 385.75 476.925 376.528 470.519C366.836 464.071 357.211 456.818 347.895 448.922C338.262 441.108 329.081 432.692 320.632 423.746C312.151 414.813 304.981 405.686 299.201 396.406C293.617 386.995 289.517 377.292 286.861 367.352C284.493 357.142 283.551 346.564 283.939 335.746C284.596 324.578 286.489 313.159 289.513 301.657C292.755 289.953 297.074 278.339 302.379 267.105C307.931 256.044 314.478 245.685 321.972 236.398C329.789 227.704 338.58 220.36 348.294 214.601C358.311 209.567 369.2 206.089 380.786 204.165C392.507 202.535 404.212 202.102 415.691 202.541C427.026 202.576 438.049 203.155 448.628 204.144C459.006 204.439 469.018 205.15 478.63 206.315C488.161 206.925 497.461 208.183 506.48 210.185C515.627 211.92 524.649 214.56 533.476 218.146C542.552 221.641 551.492 226.132 560.19 231.578C569.112 236.992 577.762 243.347 585.947 250.573C594.268 257.767 602.032 265.82 609.036 274.728Z" stroke="url(#paint10_linear_1_39)" stroke-width="2.89375" stroke-linecap="round" stroke-dasharray="10.42 24.31"/>
<path opacity="0.78" d="M595.99 295.641C601.725 303.865 606.462 312.596 610.196 321.726C613.826 330.941 616.416 340.617 618.021 350.636C619.464 360.786 619.916 371.293 619.418 381.96C618.724 392.695 617.07 403.459 614.473 413.975C611.624 424.26 607.778 433.974 602.961 442.763C597.79 450.891 591.577 457.753 584.372 463.035C576.785 467.433 568.254 470.212 558.88 471.348C549.301 471.966 539.079 471.374 528.446 469.848C517.954 468.762 507.77 467.434 498.074 466.169C488.733 465.956 479.888 465.902 471.568 465.947C463.509 466.918 455.803 467.668 448.424 467.986C441.054 468.717 433.786 468.652 426.613 467.659C419.223 466.681 411.785 464.616 404.358 461.456C396.589 458.195 388.777 453.895 381.036 448.639C372.982 443.332 365.034 437.166 357.391 430.258C349.521 423.367 342.055 415.771 335.206 407.518C328.324 399.278 322.526 390.733 317.848 381.993C313.316 373.178 309.98 364.069 307.817 354.771C305.882 345.32 305.138 335.626 305.526 325.806C306.147 315.844 307.861 305.783 310.591 295.822C313.551 285.853 317.502 276.127 322.38 266.912C327.484 257.961 333.521 249.752 340.411 242.544C347.549 235.875 355.549 230.377 364.307 226.244C373.289 222.683 382.991 220.416 393.309 219.491C403.707 218.795 414.112 219.139 424.363 220.272C434.529 221.128 444.491 222.521 454.132 224.296C463.641 225.553 472.874 227.176 481.748 229.144C490.566 230.63 499.14 232.58 507.415 235.077C515.747 237.247 523.883 240.085 531.755 243.641C539.756 247.042 547.556 251.236 555.049 256.236C562.672 261.154 569.988 266.914 576.844 273.497C583.783 280.039 590.217 287.418 595.99 295.641Z" stroke="url(#paint11_linear_1_39)" stroke-width="2.89375" stroke-linecap="round" stroke-dasharray="23.15 3.47"/>
<path opacity="0.7" d="M581.607 316.692C586.208 324.121 589.928 331.969 592.804 340.105C595.597 348.288 597.5 356.772 598.542 365.44C599.466 374.118 599.504 382.939 598.706 391.697C597.739 400.37 595.902 408.858 593.23 416.908C590.356 424.667 586.623 431.779 582.06 437.996C577.274 443.687 571.643 448.306 565.233 451.666C558.619 454.435 551.27 455.968 543.294 456.271C535.211 456.281 526.62 455.351 517.654 453.649C508.773 452.248 500.052 450.561 491.631 448.789C483.405 447.744 475.471 446.712 467.892 445.699C460.461 445.379 453.304 444.92 446.408 444.195C439.54 443.907 432.819 443.12 426.267 441.744C419.599 440.509 413.003 438.507 406.522 435.727C399.85 432.953 393.242 429.342 386.799 424.915C380.161 420.482 373.707 415.252 367.563 409.296C361.277 403.344 355.378 396.68 350.011 389.348C344.622 382.022 340.124 374.359 336.548 366.471C333.05 358.56 330.531 350.407 328.97 342.114C327.566 333.778 327.146 325.306 327.663 316.832C328.372 308.352 330.009 299.922 332.544 291.73C335.254 283.645 338.846 275.911 343.244 268.73C347.82 261.835 353.211 255.648 359.337 250.359C365.638 245.513 372.65 241.645 380.31 238.917C388.112 236.605 396.519 235.361 405.432 235.224C414.411 235.274 423.423 236.205 432.327 237.815C441.201 239.278 449.94 241.237 458.455 243.596C466.91 245.575 475.155 247.915 483.108 250.542C491.042 252.801 498.739 255.417 506.162 258.423C513.599 261.136 520.812 264.334 527.727 268.05C534.712 271.589 541.436 275.733 547.82 280.502C554.282 285.165 560.397 290.515 566.057 296.549C571.766 302.544 576.993 309.254 581.607 316.692Z" stroke="url(#paint12_linear_1_39)" stroke-width="2.89375" stroke-linecap="round" stroke-dasharray="10.42 10.42"/>
<path opacity="0.89" d="M565.185 335.415C572.226 348.426 576.226 362.371 577.341 376.351C578.113 390.229 575.869 403.659 570.865 415.33C565.362 426.032 557.043 434.026 546.327 438.26C535.214 441.134 521.953 440.62 507.222 437.052C492.689 434.33 478.473 430.624 465.178 426.691C452.174 424.662 439.753 421.839 428.211 417.791C416.435 414.505 405.08 409.052 394.687 401.252C383.826 393.532 373.937 383.297 365.92 370.75C357.833 358.207 352.797 344.562 350.792 330.685C349.193 316.872 350.79 303.039 355.315 290.277C360.338 278.104 368.235 267.667 378.6 260.132C389.361 253.85 402.438 250.801 417.285 251.462C432.257 252.689 447.369 256.528 461.846 262.001C476.229 266.618 490.068 272.529 502.823 279.486C515.641 285.6 527.599 293.243 538.124 302.496C548.803 311.43 558.085 322.404 565.185 335.415Z" stroke="url(#paint13_linear_1_39)" stroke-width="2.89375" stroke-linecap="round" stroke-dasharray="2.31 2.31"/>
<path opacity="0.2" d="M546.593 349.356C551.725 360.162 554.328 371.128 554.62 381.573C554.711 391.863 552.41 401.27 547.963 408.923C543.265 415.96 536.444 420.794 527.847 422.888C519.085 424.316 508.699 423.297 497.121 419.961C485.627 417.15 474.165 413.221 463.254 408.781C452.446 405.497 442.012 401.473 432.344 396.669C422.564 392.482 413.327 386.93 405.107 379.901C396.672 372.989 389.25 364.356 383.541 354.123C377.773 343.888 374.474 333.034 373.55 322.303C372.833 311.692 374.599 301.432 378.618 292.359C382.928 283.778 389.46 276.775 397.88 272.119C406.522 268.26 416.948 266.893 428.777 268.36C440.678 270.203 452.749 274.199 464.4 279.598C476.032 284.591 487.279 290.759 497.641 297.772C508.043 304.298 517.667 311.898 525.961 320.486C534.351 328.87 541.435 338.543 546.593 349.356Z" stroke="url(#paint14_linear_1_39)" stroke-width="2.89375" stroke-linecap="round" stroke-dasharray="12.73 9.26"/>
<path opacity="0.29" d="M526.369 356.833C529.8 365.155 531.32 373.099 531.117 380.227C529.836 390.279 519.044 403.51 510.081 405.655C503.634 406.21 496.016 405.068 487.481 402.215C478.965 399.663 470.375 396.036 462.108 391.795C453.852 388.123 445.83 383.776 438.427 378.878C430.958 374.359 424.009 368.997 418.006 362.864C411.886 356.837 406.714 349.83 402.948 341.996C399.148 334.164 397.224 326.249 397.048 318.717C397.796 307.869 407.88 291.069 416.753 286.524C423.202 284.48 430.937 284.237 439.714 286.031C448.516 288.066 457.468 291.715 466.15 296.496C474.818 301.138 483.238 306.783 490.968 313.079C498.711 319.165 505.819 326 511.85 333.339C517.919 340.593 522.915 348.514 526.369 356.833Z" stroke="url(#paint15_linear_1_39)" stroke-width="2.89375" stroke-linecap="round" stroke-dasharray="4.63 30.1"/>
<path opacity="0.67" d="M505.448 357.542C508.915 373.282 494.176 387.759 478.612 383.723C467.449 379.91 455.896 372.846 446.108 364.482C436.207 356.736 427.911 346.919 423.61 336.219C419.275 325.532 419.956 315.946 424.649 309.531C429.477 303.585 438.273 301.425 449.735 304.6C461.225 308.191 473.144 315.98 483.156 325.575C493.207 334.972 501.426 346.286 505.448 357.542Z" stroke="url(#paint16_linear_1_39)" stroke-width="2.89375" stroke-linecap="round" stroke-dasharray="27.78 3.47"/>
</g>
<defs>
<linearGradient id="paint0_linear_1_39" x1="675.41" y1="44.7831" x2="256.001" y2="673.573" gradientUnits="userSpaceOnUse">
<stop stop-color="#1F89DB"/>
<stop offset="1" stop-color="#F42A8B"/>
</linearGradient>
<linearGradient id="paint1_linear_1_39" x1="680.402" y1="73.4899" x2="249.7" y2="643.516" gradientUnits="userSpaceOnUse">
<stop stop-color="#1F89DB"/>
<stop offset="1" stop-color="#F42A8B"/>
</linearGradient>
<linearGradient id="paint2_linear_1_39" x1="682.777" y1="101.687" x2="246.174" y2="613.888" gradientUnits="userSpaceOnUse">
<stop stop-color="#1F89DB"/>
<stop offset="1" stop-color="#F42A8B"/>
</linearGradient>
<linearGradient id="paint3_linear_1_39" x1="682.611" y1="129.169" x2="245.343" y2="584.911" gradientUnits="userSpaceOnUse">
<stop stop-color="#1F89DB"/>
<stop offset="1" stop-color="#F42A8B"/>
</linearGradient>
<linearGradient id="paint4_linear_1_39" x1="679.927" y1="155.689" x2="247.064" y2="556.733" gradientUnits="userSpaceOnUse">
<stop stop-color="#1F89DB"/>
<stop offset="1" stop-color="#F42A8B"/>
</linearGradient>
<linearGradient id="paint5_linear_1_39" x1="674.848" y1="181.021" x2="251.25" y2="529.519" gradientUnits="userSpaceOnUse">
<stop stop-color="#1F89DB"/>
<stop offset="1" stop-color="#F42A8B"/>
</linearGradient>
<linearGradient id="paint6_linear_1_39" x1="667.547" y1="205.029" x2="257.841" y2="503.508" gradientUnits="userSpaceOnUse">
<stop stop-color="#1F89DB"/>
<stop offset="1" stop-color="#F42A8B"/>
</linearGradient>
<linearGradient id="paint7_linear_1_39" x1="657.665" y1="227.966" x2="267.344" y2="478.584" gradientUnits="userSpaceOnUse">
<stop stop-color="#1F89DB"/>
<stop offset="1" stop-color="#F42A8B"/>
</linearGradient>
<linearGradient id="paint8_linear_1_39" x1="646.83" y1="248.472" x2="277.934" y2="455.769" gradientUnits="userSpaceOnUse">
<stop stop-color="#1F89DB"/>
<stop offset="1" stop-color="#F42A8B"/>
</linearGradient>
<linearGradient id="paint9_linear_1_39" x1="633.78" y1="267.791" x2="291.004" y2="434.701" gradientUnits="userSpaceOnUse">
<stop stop-color="#1F89DB"/>
<stop offset="1" stop-color="#F42A8B"/>
</linearGradient>
<linearGradient id="paint10_linear_1_39" x1="619.028" y1="285.097" x2="305.809" y2="415.43" gradientUnits="userSpaceOnUse">
<stop stop-color="#1F89DB"/>
<stop offset="1" stop-color="#F42A8B"/>
</linearGradient>
<linearGradient id="paint11_linear_1_39" x1="602.861" y1="300.375" x2="322.263" y2="398.211" gradientUnits="userSpaceOnUse">
<stop stop-color="#1F89DB"/>
<stop offset="1" stop-color="#F42A8B"/>
</linearGradient>
<linearGradient id="paint12_linear_1_39" x1="585.422" y1="313.508" x2="340.152" y2="383.152" gradientUnits="userSpaceOnUse">
<stop stop-color="#1F89DB"/>
<stop offset="1" stop-color="#F42A8B"/>
</linearGradient>
<linearGradient id="paint13_linear_1_39" x1="566.887" y1="324.599" x2="359.338" y2="370.541" gradientUnits="userSpaceOnUse">
<stop stop-color="#1F89DB"/>
<stop offset="1" stop-color="#F42A8B"/>
</linearGradient>
<linearGradient id="paint14_linear_1_39" x1="547.484" y1="333.119" x2="379.406" y2="360.074" gradientUnits="userSpaceOnUse">
<stop stop-color="#1F89DB"/>
<stop offset="1" stop-color="#F42A8B"/>
</linearGradient>
<linearGradient id="paint15_linear_1_39" x1="527.383" y1="339.286" x2="400.253" y2="352.066" gradientUnits="userSpaceOnUse">
<stop stop-color="#1F89DB"/>
<stop offset="1" stop-color="#F42A8B"/>
</linearGradient>
<linearGradient id="paint16_linear_1_39" x1="505.141" y1="341.979" x2="421.635" y2="345.436" gradientUnits="userSpaceOnUse">
<stop stop-color="#1F89DB"/>
<stop offset="1" stop-color="#F42A8B"/>
</linearGradient>
<clipPath id="clip0_1_39">
<rect width="926" height="926" fill="white" transform="translate(0 -114)"/>
</clipPath>
</defs>
</svg>
