<svg width="572" height="688" viewBox="0 0 572 688" fill="none" xmlns="http://www.w3.org/2000/svg">
<g style="mix-blend-mode:plus-lighter" opacity="0.1" clip-path="url(#clip0_1_10)">
<path opacity="0.67" d="M304.885 -88.8998C316.687 -83.9751 328.155 -78.3608 339.25 -72.0407C350.251 -65.5166 360.854 -58.2058 371.046 -50.0888C381.114 -41.661 390.752 -32.3978 399.971 -22.3188C409.035 -11.9224 417.659 -0.739332 425.8 11.1042C433.724 23.21 441.103 35.879 447.832 48.9559C454.189 62.0651 459.745 75.3846 464.35 88.7427C468.356 101.842 471.212 114.749 472.789 127.281C473.605 139.333 473.078 150.896 471.213 161.918C468.763 172.493 465.244 182.65 460.886 192.486C456.662 202.313 452.226 212.223 447.94 222.458C444.816 233.327 442.508 244.951 441.258 257.492C441.689 271.027 443.22 285.521 445.648 300.838C449.035 316.695 452.402 332.793 455.115 348.692C456.996 363.967 456.931 378.224 454.353 391.072C449.571 402.407 441.875 412.094 431.408 420.212C419.383 427.278 405.727 433.55 391.29 439.582C377.695 446.162 365.276 453.442 354.607 461.735C346.293 471.612 339.902 482.604 335.087 494.451C331.817 507.286 328.948 520.15 325.795 532.515C322.184 544.492 317.092 555.115 310.196 564.086C301.636 571.807 291.062 577.665 278.734 581.736C265.075 584.708 250.325 586.265 235.019 586.68C219.55 586.705 204.364 586.076 189.825 584.982C176.09 584.114 163.429 583.023 151.892 581.741C141.427 580.893 131.998 579.839 123.46 578.48C115.669 577.494 108.387 576.103 101.409 574.214C94.652 572.625 87.8137 570.506 80.7391 567.878C73.4411 565.564 65.6348 562.813 57.2587 559.696C48.3935 557.039 38.8192 554.161 28.5909 551.128C17.7537 548.713 6.24943 546.246 -5.85709 543.757C-18.4883 541.885 -31.6247 539.972 -45.1367 537.948C-58.9758 536.352 -73.0155 534.467 -87.1232 532.158C-101.263 529.898 -114.921 526.977 -127.96 523.276C-140.775 519.219 -152.848 514.155 -164.115 508.029C-174.971 501.265 -184.972 493.346 -194.114 484.287C-202.789 474.529 -210.623 463.676 -217.624 451.849C-224.217 439.452 -230.026 426.217 -235.081 412.334C-239.769 398.134 -243.755 383.49 -247.019 368.585C-249.955 353.673 -252.212 338.709 -253.756 323.856C-255.035 309.236 -255.637 294.842 -255.562 280.802C-255.32 267.099 -254.494 253.742 -253.121 240.764C-251.797 228.049 -250.055 215.612 -248.003 203.424C-246.254 191.314 -244.309 179.308 -242.243 167.353C-240.631 155.321 -238.915 143.26 -237.086 131.176C-235.623 118.988 -233.897 106.807 -231.783 94.7163C-229.74 82.6486 -227.069 70.7752 -223.637 59.1708C-219.924 47.7964 -215.288 36.7849 -209.635 26.1848C-203.619 15.8406 -196.642 5.88523 -188.768 -3.71051C-180.768 -13.222 -172.285 -22.2996 -163.527 -31.0111C-154.993 -39.8716 -146.365 -48.4731 -137.73 -56.8317C-129.477 -65.4171 -121.212 -73.7273 -112.917 -81.6812C-104.862 -89.7388 -96.597 -97.2912 -88.0598 -104.241C-79.4708 -111.059 -70.419 -117.118 -60.9108 -122.368C-51.1144 -127.313 -40.8132 -131.375 -30.0588 -134.558C-19.0261 -137.444 -7.64056 -139.491 3.97467 -140.767C15.6902 -141.879 27.4769 -142.339 39.2505 -142.19C50.8978 -142.084 62.4251 -141.482 73.7646 -140.43C84.8968 -139.573 95.8509 -138.343 106.607 -136.754C117.205 -135.453 127.683 -133.825 138.093 -131.863C148.458 -130.255 158.855 -128.316 169.3 -126.05C179.827 -124.137 190.486 -121.897 201.317 -119.304C212.274 -117.048 223.415 -114.416 234.722 -111.379C246.171 -108.598 257.769 -105.367 269.454 -101.614C281.227 -98.0141 293.054 -93.8018 304.875 -88.9063" stroke="url(#paint0_linear_1_10)" stroke-width="2.91875" stroke-linecap="round" stroke-dasharray="24.52 12.84"/>
<path opacity="0.25" d="M316.914 -55.4696C327.975 -50.1414 338.693 -44.1652 349.034 -37.5366C359.263 -30.759 369.083 -23.266 378.443 -15.0671C387.634 -6.64461 396.334 2.50463 404.502 12.3198C412.443 22.3583 419.793 33.0041 426.497 44.1567C432.878 55.4459 438.517 67.0967 443.332 78.9874C447.689 90.8251 451.104 102.727 453.47 114.509C455.262 126.062 455.934 137.354 455.43 148.285C454.388 158.882 452.243 169.099 449.096 178.94C445.75 188.616 441.747 198.117 437.304 207.579C433.317 217.311 429.426 227.379 425.932 237.968C423.578 249.315 422.012 261.477 421.316 274.501C421.918 288.404 423.251 303.063 425.043 318.275C427.318 333.778 429.234 349.215 430.26 364.184C430.337 378.393 428.561 391.434 424.534 402.981C418.648 413.094 410.322 421.596 399.71 428.591C387.878 434.665 374.729 439.963 360.932 444.976C347.836 450.533 335.717 456.638 325.012 463.621C316.27 472.073 309.17 481.547 303.499 491.822C299.265 503.138 295.617 514.59 292.021 525.702C288.33 536.668 283.695 546.482 277.8 554.846C270.689 562.145 261.974 567.676 251.735 571.427C240.273 574.048 227.686 575.117 214.356 574.864C200.543 574.012 186.614 572.267 172.941 569.853C159.615 567.465 146.966 564.742 135.143 561.779C124.065 559.204 113.862 556.498 104.488 553.644C95.7794 551.264 87.672 548.709 80.0183 545.94C72.6667 543.605 65.4537 541.008 58.2254 538.122C50.9092 535.681 43.3137 532.971 35.3502 530.013C27.0113 527.531 18.1384 524.866 8.70807 522.028C-1.21227 519.741 -11.7346 517.322 -22.8004 514.77C-34.3352 512.742 -46.3456 510.53 -58.7359 508.104C-71.4216 506.011 -84.3325 503.558 -97.3467 500.602C-110.387 497.7 -123.016 494.157 -135.129 489.892C-147.005 485.352 -158.214 479.912 -168.685 473.551C-178.748 466.709 -187.986 458.851 -196.379 450.051C-204.301 440.685 -211.349 430.414 -217.546 419.307C-223.247 407.757 -228.118 395.516 -232.157 382.733C-235.755 369.698 -238.554 356.302 -240.563 342.712C-242.202 329.079 -243.095 315.425 -243.259 301.853C-243.152 288.427 -242.386 275.193 -240.99 262.229C-239.509 249.462 -237.517 236.949 -235.084 224.724C-232.772 212.6 -230.182 200.67 -227.37 188.893C-224.914 177.082 -222.341 165.329 -219.714 153.603C-217.514 141.744 -215.258 129.869 -212.881 118.028C-210.819 106.08 -208.502 94.2215 -205.813 82.528C-203.13 70.9022 -199.84 59.5751 -195.845 48.6334C-191.564 37.952 -186.412 27.7243 -180.36 18.0299C-173.938 8.60061 -166.649 -0.349202 -158.563 -8.84319C-150.339 -17.248 -141.723 -25.1656 -132.884 -32.6809C-124.268 -40.3651 -115.604 -47.7643 -106.972 -54.909C-98.7358 -62.3237 -90.5541 -69.4724 -82.4179 -76.2896C-74.5615 -83.2597 -66.6085 -89.7764 -58.5128 -95.7462C-50.4056 -101.634 -41.9857 -106.832 -33.223 -111.245C-24.2254 -115.406 -14.7918 -118.712 -4.97141 -121.154C5.14917 -123.297 15.6194 -124.604 26.3483 -125.131C37.289 -125.454 48.3721 -125.113 59.5183 -124.14C70.6995 -123.154 81.8393 -121.688 92.8678 -119.764C103.831 -118.006 114.651 -115.904 125.316 -113.479C135.9 -111.335 146.355 -108.923 156.706 -106.239C167.025 -103.9 177.313 -101.306 187.589 -98.4441C197.915 -95.9392 208.298 -93.1422 218.755 -90.0554C229.318 -87.2834 239.987 -84.1679 250.751 -80.6737C261.632 -77.4126 272.598 -73.7215 283.618 -69.5213C294.711 -65.4562 305.821 -60.7933 316.905 -55.4766" stroke="url(#paint1_linear_1_10)" stroke-width="2.91875" stroke-linecap="round" stroke-dasharray="25.68 18.68"/>
<path opacity="0.16" d="M325.149 -22.2555C335.422 -16.5978 345.3 -10.3869 354.731 -3.65172C364.065 3.2154 372.907 10.66 381.204 18.6532C389.301 26.8281 396.82 35.5541 403.69 44.7542C410.283 54.1172 416.171 63.8923 421.291 73.9938C426.051 84.1571 429.949 94.5215 432.951 104.966C435.51 115.354 437.095 125.679 437.666 135.861C437.793 145.88 436.917 155.673 435.083 165.185C432.932 174.566 429.986 183.745 426.365 192.762C422.81 201.882 418.921 211.07 414.907 220.458C411.487 230.337 408.314 240.718 405.604 251.709C403.894 263.506 402.799 276.057 402.35 289.343C402.802 303.336 403.611 317.847 404.513 332.608C405.553 347.424 405.988 361.923 405.407 375.726C403.862 388.66 400.619 400.347 395.434 410.533C388.694 419.376 379.953 426.715 369.377 432.626C357.867 437.741 345.297 442.122 332.196 446.189C319.69 450.746 307.964 455.755 297.405 461.466C288.445 468.54 280.872 476.506 274.567 485.199C269.565 494.972 265.225 504.941 261.201 514.72C257.323 524.577 252.95 533.505 247.768 541.223C241.783 548.118 234.602 553.411 226.229 557.043C216.801 559.607 206.337 560.582 195.08 560.146C183.186 558.981 170.935 556.761 158.622 553.676C146.288 550.418 134.271 546.663 122.755 542.554C111.623 538.696 101.117 534.68 91.2813 530.561C81.889 526.911 73.0626 523.192 64.721 519.426C56.6265 516.162 48.799 512.819 41.1042 509.374C33.3842 506.445 25.5639 503.399 17.576 500.226C9.29698 497.556 0.685827 494.772 -8.31695 491.854C-17.7198 489.423 -27.5726 486.854 -37.8437 484.128C-48.5126 481.814 -59.5708 479.292 -70.9337 476.479C-82.5479 473.942 -94.3595 471.008 -106.228 467.564C-118.135 464.165 -129.649 460.18 -140.669 455.542C-151.48 450.714 -161.649 445.114 -171.109 438.738C-180.193 431.991 -188.473 424.427 -195.905 416.067C-202.873 407.305 -208.965 397.787 -214.164 387.617C-218.886 377.103 -222.724 366.038 -225.685 354.555C-228.206 342.864 -229.889 330.89 -230.748 318.76C-231.255 306.576 -231.003 294.349 -230.043 282.19C-228.863 270.079 -227.068 258.093 -224.73 246.28C-222.346 234.52 -219.544 222.918 -216.413 211.488C-213.451 200.022 -210.283 188.64 -206.992 177.346C-204.027 165.913 -201.021 154.485 -197.963 143.07C-195.3 131.487 -192.563 119.906 -189.711 108.408C-187.098 96.8123 -184.208 85.3769 -180.959 74.1863C-177.666 63.1247 -173.807 52.4237 -169.296 42.2009C-164.49 32.2609 -158.902 22.8798 -152.506 14.0802C-145.762 5.59252 -138.255 -2.36795 -130.053 -9.8124C-121.71 -17.1521 -113.061 -23.9697 -104.244 -30.3534C-95.6233 -36.9037 -86.9964 -43.1729 -78.4638 -49.1696C-70.2942 -55.4603 -62.2201 -61.495 -54.2718 -67.238C-46.6141 -73.1981 -38.9641 -78.7352 -31.2686 -83.8039C-23.6299 -88.8597 -15.8009 -93.2931 -7.74071 -97.0078C0.483352 -100.537 9.04389 -103.273 17.9182 -105.189C27.0794 -106.83 36.5785 -107.661 46.3304 -107.709C56.34 -107.538 66.5541 -106.671 76.8928 -105.176C87.3772 -103.618 97.9037 -101.533 108.409 -98.991C118.979 -96.562 129.48 -93.763 139.872 -90.6573C150.288 -87.777 160.599 -84.6483 170.805 -81.2875C181.046 -78.2193 191.219 -74.9471 201.344 -71.4557C211.527 -68.2835 221.704 -64.8707 231.876 -61.2009C242.149 -57.8289 252.454 -54.1531 262.762 -50.1379C273.168 -46.3458 283.588 -42.1575 293.988 -37.5119C304.436 -32.9779 314.844 -27.9106 325.132 -22.2707" stroke="url(#paint2_linear_1_10)" stroke-width="2.91875" stroke-linecap="round" stroke-dasharray="19.85 18.68"/>
<path opacity="0.82" d="M328.069 8.80693C337.505 14.6725 346.445 20.953 354.882 27.6237C363.196 34.3878 370.95 41.5681 378.067 49.1413C385.006 56.8339 391.258 64.904 396.79 73.2697C402.044 81.7403 406.518 90.4665 410.17 99.3583C413.484 108.282 415.925 117.29 417.481 126.291C418.675 135.266 418.966 144.17 418.363 152.943C417.47 161.665 415.766 170.271 413.323 178.752C410.783 187.285 407.707 195.821 404.218 204.398C400.959 213.292 397.581 222.462 394.228 231.994C391.49 242.133 389.019 252.836 386.933 264.166C385.63 276.216 384.737 288.917 384.21 302.165C384.222 315.896 384.296 329.882 384.189 343.856C383.946 357.667 382.975 370.957 380.961 383.392C378.029 394.914 373.6 405.162 367.523 413.958C360.199 421.541 351.268 427.712 340.874 432.592C329.798 436.802 317.881 440.318 305.553 443.504C293.68 447.144 282.474 451.116 272.205 455.647C263.225 461.398 255.391 467.91 248.67 475.084C243.076 483.309 238.19 491.791 233.748 500.198C229.625 508.862 225.332 516.845 220.63 523.854C215.445 530.303 209.44 535.381 202.595 538.974C194.913 541.652 186.358 542.828 177.08 542.582C167.126 541.574 156.71 539.395 146.034 536.255C135.087 532.758 124.176 528.599 113.469 523.957C102.847 519.396 92.5826 514.579 82.7444 509.606C73.1284 504.991 63.9408 500.334 55.1414 495.677C46.4919 491.488 38.1154 487.318 29.9376 483.177C21.7206 479.532 13.545 475.894 5.32757 472.233C-3.11102 469.055 -11.7234 465.856 -20.5521 462.579C-29.7021 459.738 -39.1264 456.812 -48.8266 453.718C-58.841 451.002 -69.1159 448.068 -79.5698 444.866C-90.2422 441.875 -101.013 438.514 -111.761 434.69C-122.548 430.909 -132.917 426.623 -142.777 421.823C-152.458 416.854 -161.508 411.278 -169.852 405.084C-177.855 398.619 -185.053 391.502 -191.431 383.781C-197.377 375.746 -202.452 367.14 -206.628 358.036C-210.364 348.675 -213.218 338.883 -215.202 328.776C-216.777 318.495 -217.523 307.975 -217.479 297.338C-217.123 286.613 -216.042 275.823 -214.316 265.053C-212.425 254.247 -209.99 243.462 -207.073 232.766C-204.175 222.005 -200.945 211.286 -197.433 200.628C-194.131 189.833 -190.663 179.035 -187.096 168.252C-183.847 157.26 -180.541 146.243 -177.193 135.233C-174.155 124.039 -171.025 112.885 -167.753 101.835C-164.63 90.7389 -161.238 79.8683 -157.476 69.3038C-153.638 58.8946 -149.253 48.9282 -144.287 39.503C-139.034 30.3857 -133.083 21.8732 -126.426 13.9902C-119.456 6.42278 -111.831 -0.563711 -103.591 -6.99317C-95.2498 -13.3091 -86.6581 -19.0935 -77.9497 -24.4262C-69.4098 -29.9205 -60.9048 -35.1086 -52.5265 -40.0299C-44.4517 -45.2586 -36.5372 -50.2528 -28.7908 -54.9876C-21.3221 -59.9726 -13.9452 -64.6089 -6.61772 -68.8396C0.609343 -73.1342 7.91372 -76.8855 15.3547 -80.0203C22.8806 -83.0413 30.6526 -85.3407 38.6381 -86.9014C46.876 -88.2361 55.386 -88.7919 64.1424 -88.6098C73.1593 -88.2101 82.4052 -87.1215 91.8049 -85.3838C101.421 -83.5349 111.157 -81.1518 120.935 -78.2906C130.869 -75.441 140.811 -72.2282 150.711 -68.6677C160.723 -65.2747 170.683 -61.6081 180.573 -57.7171C190.549 -54.0508 200.463 -50.1851 210.307 -46.1281C220.253 -42.3291 230.146 -38.3225 239.985 -34.1085C249.935 -30.1279 259.823 -25.8983 269.652 -21.4033C279.584 -17.0673 289.432 -12.4075 299.172 -7.3822C308.96 -2.44044 318.617 2.94168 328.061 8.79886" stroke="url(#paint3_linear_1_10)" stroke-width="2.91875" stroke-linecap="round" stroke-dasharray="11.67 24.52"/>
<path opacity="0.29" d="M325.154 36.1062C333.668 42.0489 341.643 48.2519 349.04 54.6889C356.325 61.2126 362.982 67.9849 368.969 74.9795C374.77 82.0827 379.869 89.3904 384.202 96.8671C388.301 104.418 391.619 112.087 394.124 119.824C396.355 127.609 397.775 135.429 398.379 143.21C398.741 151.039 398.319 158.83 397.173 166.577C395.891 174.401 393.973 182.242 391.533 190.105C389.134 198.201 386.382 206.448 383.391 214.917C380.704 223.837 377.978 233.142 375.326 242.889C373.196 253.25 371.267 264.172 369.574 275.624C368.42 287.675 367.456 300.188 366.602 313.026C365.995 326.131 365.214 339.237 364.054 352.105C362.608 364.649 360.379 376.518 357.162 387.424C353.112 397.448 347.804 406.217 341.127 413.613C333.475 419.955 324.549 425.025 314.503 428.921C303.949 432.286 292.75 435.006 281.233 437.384C270.089 440.181 259.482 443.196 249.635 446.654C240.788 451.174 232.891 456.325 225.94 462.05C219.941 468.785 214.634 475.787 209.839 482.824C205.457 490.258 201.135 497.222 196.667 503.463C191.997 509.382 186.84 514.191 181.119 517.757C174.814 520.606 167.851 522.092 160.284 522.274C152.126 521.731 143.484 520.013 134.493 517.266C125.106 514.074 115.575 510.109 106.026 505.523C96.3406 500.841 86.7764 495.792 77.4203 490.486C68.0732 485.379 58.9615 480.165 50.1314 474.929C41.2962 470.048 32.6741 465.208 24.2323 460.409C15.716 456.044 7.27968 451.748 -1.11694 447.495C-9.70348 443.673 -18.3407 439.882 -27.0605 436.088C-36.0508 432.671 -45.1633 429.209 -54.3882 425.66C-63.8718 422.398 -73.4653 418.984 -83.1166 415.352C-92.9483 411.904 -102.744 408.151 -112.434 404.03C-122.158 399.925 -131.406 395.458 -140.126 390.598C-148.694 385.628 -156.624 380.195 -163.843 374.31C-170.773 368.222 -176.934 361.658 -182.276 354.655C-187.254 347.41 -191.374 339.751 -194.645 331.737C-197.528 323.506 -199.573 314.96 -200.783 306.181C-201.655 297.217 -201.744 288.068 -201.102 278.815C-200.214 269.414 -198.671 259.931 -196.54 250.413C-194.313 240.757 -191.605 231.071 -188.476 221.376C-185.406 211.513 -182.037 201.596 -178.445 191.662C-175.05 181.514 -171.505 171.306 -167.858 161.052C-164.468 150.574 -161.01 140.048 -157.469 129.543C-154.154 118.863 -150.701 108.263 -147.081 97.8268C-143.526 87.3713 -139.692 77.1824 -135.501 67.379C-131.177 57.7542 -126.375 48.6267 -121.034 40.0651C-115.424 31.8276 -109.218 24.216 -102.394 17.2724C-95.3081 10.6279 -87.659 4.59149 -79.4947 -0.871755C-71.2193 -6.2151 -62.7827 -11.0236 -54.2719 -15.3913C-45.8967 -19.8882 -37.5743 -24.0814 -29.402 -28.0242C-21.4915 -32.2497 -13.7542 -36.2669 -6.22363 -40.0608C1.05299 -44.1286 8.17835 -47.9131 15.1994 -51.3464C22.0862 -54.9417 28.9634 -58.0665 35.8625 -60.6865C42.8179 -63.2631 49.8819 -65.2241 57.1029 -66.5348C64.5162 -67.6894 72.1175 -68.1429 79.924 -67.9111C87.9791 -67.4798 96.2319 -66.3884 104.651 -64.6709C113.321 -62.82 122.135 -60.4183 131.03 -57.5179C140.145 -54.5677 149.328 -51.2184 158.513 -47.5054C167.884 -43.8681 177.259 -39.9331 186.575 -35.7526C196.062 -31.7142 205.508 -27.4626 214.856 -23.0248C224.36 -18.7627 233.798 -14.3132 243.13 -9.68589C252.602 -5.23506 261.974 -0.564932 271.206 4.31462C280.541 9.06596 289.727 14.0842 298.728 19.3845C307.789 24.6128 316.607 30.1788 325.138 36.1056" stroke="url(#paint4_linear_1_10)" stroke-width="2.91875" stroke-linecap="round" stroke-dasharray="24.52 2.34"/>
<path opacity="0.44" d="M317.103 58.9366C324.685 64.8084 331.682 70.814 338.079 76.9354C344.395 83.1236 350.059 89.4392 355.058 95.8642C359.901 102.357 364.036 108.963 367.451 115.633C370.686 122.375 373.175 129.187 374.941 136.019C376.509 142.923 377.36 149.857 377.53 156.808C377.541 163.859 376.933 170.966 375.758 178.101C374.529 185.447 372.841 192.914 370.771 200.542C368.803 208.496 366.609 216.726 364.252 225.272C362.171 234.302 360.057 243.751 357.994 253.628C356.291 264.054 354.66 274.936 353.124 286.208C351.888 297.899 350.625 309.852 349.279 321.906C347.959 334.028 346.309 345.953 344.178 357.457C341.684 368.52 338.419 378.811 334.268 388.137C329.405 396.613 323.494 403.91 316.495 409.956C308.768 415.118 300.041 419.138 290.46 422.138C280.529 424.714 270.108 426.711 259.445 428.378C249.072 430.396 239.123 432.564 229.806 435.058C221.239 438.463 213.451 442.376 206.447 446.762C200.223 452.079 194.627 457.681 189.561 463.376C184.919 469.568 180.481 475.457 176.108 480.854C169.387 488.379 153.935 497.932 144.857 499.505C138.174 499.56 131.076 498.521 123.644 496.471C115.787 493.94 107.694 490.59 99.4529 486.545C90.95 482.292 82.3964 477.537 73.8871 472.413C65.2145 467.347 56.6374 462.067 48.1716 456.665C39.6014 451.485 31.1403 446.291 22.8107 441.11C14.3267 436.237 5.92749 431.43 -2.4108 426.679C-10.9396 422.267 -19.4657 417.912 -27.9622 413.594C-36.6953 409.576 -45.4448 405.556 -54.1911 401.504C-63.1511 397.688 -72.1016 393.773 -80.981 389.725C-90.0152 385.818 -98.912 381.693 -107.61 377.314C-116.326 372.949 -124.538 368.352 -132.196 363.509C-139.736 358.571 -146.633 353.329 -152.821 347.792C-158.795 342.094 -164.016 336.078 -168.469 329.764C-172.623 323.264 -175.976 316.468 -178.535 309.426C-180.784 302.19 -182.255 294.723 -182.964 287.081C-183.414 279.258 -183.158 271.262 -182.237 263.156C-181.14 254.861 -179.468 246.455 -177.265 237.96C-175.002 229.281 -172.331 220.491 -169.28 211.631C-166.304 202.531 -163.046 193.334 -159.58 184.058C-156.274 174.534 -152.8 164.919 -149.213 155.24C-145.803 145.344 -142.283 135.418 -138.642 125.529C-135.122 115.511 -131.43 105.61 -127.542 95.9108C-123.648 86.2367 -119.462 76.8813 -114.927 67.9497C-110.245 59.2149 -105.124 50.9955 -99.5227 43.3786C-93.6855 36.0667 -87.3217 29.3949 -80.4493 23.378C-73.3485 17.6571 -65.7672 12.5386 -57.7605 7.9924C-49.6647 3.55436 -41.4542 -0.358258 -33.2137 -3.81177C-25.0754 -7.40793 -17.0094 -10.6876 -9.08402 -13.7156C-1.39597 -17.0321 6.12179 -20.1329 13.4306 -23.0466C20.5036 -26.2653 27.4032 -29.2355 34.1605 -31.9374C40.7637 -34.8452 47.2883 -37.3707 53.7744 -39.5019C63.5129 -42.4945 83.4804 -45.6783 93.8594 -45.7055C101.036 -45.3808 108.368 -44.4436 115.843 -42.9285C123.561 -41.2654 131.418 -39.0663 139.367 -36.3688C147.558 -33.598 155.847 -30.3946 164.166 -26.8069C172.716 -23.2131 181.286 -19.3024 189.844 -15.1107C198.601 -10.991 207.326 -6.63375 215.99 -2.07513C224.82 2.39186 233.583 7.03482 242.229 11.8654C251.019 16.5773 259.684 21.4678 268.173 26.5485C276.778 31.5328 285.19 36.7222 293.35 42.1192C301.57 47.4808 309.503 53.0797 317.096 58.9276" stroke="url(#paint5_linear_1_10)" stroke-width="2.91875" stroke-linecap="round" stroke-dasharray="9.34 2.34"/>
<path opacity="0.47" d="M305.437 77.7414C312.084 83.4149 318.167 89.167 323.677 94.9461C329.112 100.78 333.936 106.669 338.134 112.61C343.928 121.634 352.112 140.026 354.505 149.376C356.093 158.952 356.316 178.709 355.166 189.007C354.266 196.178 352.998 203.558 351.442 211.178C349.998 219.149 348.353 227.439 346.58 236.069C344.999 245.122 343.341 254.563 341.642 264.366C340.148 274.569 338.599 285.073 336.995 295.818C335.497 306.789 333.824 317.816 331.914 328.756C329.892 339.603 327.451 350.092 324.501 360.041C321.168 369.503 317.151 378.165 312.338 385.874C306.976 392.829 300.761 398.714 293.694 403.487C286.088 407.54 277.734 410.607 268.741 412.796C259.515 414.665 249.91 416.014 240.12 417.051C230.564 418.408 221.351 419.819 212.62 421.456C204.469 423.869 196.925 426.679 190.015 429.864C183.717 433.889 177.981 438.169 172.73 442.601C165.592 449.953 152.417 463.394 145.766 468.6C138.626 472.56 122.454 475.126 113.369 473.699C106.847 472.022 100.067 469.537 93.1012 466.32C85.8332 462.847 78.4214 458.8 70.9388 454.299C63.2167 449.727 55.4591 444.848 47.7211 439.739C39.7694 434.713 31.8519 429.575 23.9868 424.37C15.9321 419.361 7.90323 414.348 -0.0535733 409.355C-8.23079 404.594 -16.3548 399.867 -24.435 395.18C-32.7236 390.702 -40.9657 386.249 -49.1238 381.792C-57.4594 377.508 -65.7127 373.178 -73.8132 368.781C-82.0296 364.482 -90.0571 360.046 -97.8187 355.459C-105.606 350.876 -112.857 346.178 -119.562 341.356C-126.173 336.465 -132.153 331.389 -137.489 326.147C-142.645 320.774 -147.093 315.204 -150.836 309.452C-155.753 300.481 -161.653 281.379 -162.702 271.295C-162.985 264.323 -162.637 257.208 -161.716 249.965C-160.662 242.509 -159.095 234.925 -157.083 227.219C-155.025 219.277 -152.58 211.213 -149.806 203.024C-147.085 194.585 -144.094 186.021 -140.886 177.358C-137.767 168.455 -134.473 159.454 -131.022 150.411C-127.669 141.194 -124.154 131.96 -120.478 122.81C-116.847 113.578 -112.998 104.505 -108.92 95.6696C-104.796 86.9161 -100.366 78.503 -95.603 70.5267C-90.6917 62.7742 -85.3698 55.5459 -79.6379 48.9001C-73.6954 42.5631 -67.3062 36.8395 -60.4983 31.7498C-53.4912 26.9339 -46.0878 22.6815 -38.3398 19.0014C-30.5161 15.4251 -22.6131 12.3543 -14.7089 9.7015C-6.87341 6.95436 0.86703 4.49312 8.47548 2.28694C15.9146 -0.171472 23.1668 -2.4503 30.2251 -4.55905C40.4273 -8.06262 59.7688 -14.3676 69.0431 -16.964C78.1981 -19.3869 96.5924 -22.0551 105.974 -22.1443C112.412 -21.9521 118.95 -21.2261 125.581 -19.9757C132.414 -18.6268 139.368 -16.7741 146.404 -14.4322C153.671 -12.0124 161.02 -9.16176 168.415 -5.91116C176.031 -2.63413 183.691 1.0008 191.364 4.93014C199.221 8.85504 207.07 13.046 214.876 17.4559C222.846 21.8331 230.76 26.4103 238.552 31.1773C246.496 35.8764 254.296 40.7533 261.927 45.796C269.667 50.7888 277.187 55.956 284.448 61.2831C291.763 66.5852 298.774 72.0653 305.43 77.7319" stroke="url(#paint6_linear_1_10)" stroke-width="2.91875" stroke-linecap="round" stroke-dasharray="18.68 7.01"/>
<path opacity="0.7" d="M291.998 94.0138C297.763 99.4275 303.013 104.881 307.751 110.358C314.493 118.655 325.133 135.506 329.024 144.094C332.215 152.867 335.876 170.995 336.465 180.426C336.673 186.952 336.474 193.643 335.918 200.534C335.378 207.666 334.544 215.055 333.461 222.702C332.436 230.658 331.229 238.911 329.854 247.466C328.571 256.337 327.15 265.491 325.603 274.879C324.112 284.507 322.477 294.298 320.649 304.157C318.804 314.055 316.682 323.867 314.234 333.43C311.622 342.78 308.557 351.685 304.988 359.999C301.08 367.808 296.571 374.852 291.409 381.01C285.822 386.526 279.571 391.095 272.655 394.716C265.368 397.758 257.525 399.977 249.212 401.444C240.745 402.691 232.003 403.489 223.108 403.984C214.38 404.76 205.94 405.531 197.857 406.447C190.2 408.006 183.014 409.845 176.339 411.981C167.25 416.387 151.72 426.817 144.913 432.228C138.466 437.658 125.56 445.931 118.777 448.288C111.493 449.455 95.481 447.401 86.764 444.327C80.6155 441.795 74.2989 438.678 67.8648 435.053C61.1803 431.298 54.3958 427.149 47.5518 422.692C40.4749 418.217 33.3595 413.532 26.2274 408.69C18.8995 403.933 11.5569 399.088 4.24455 394.182C-3.2643 389.402 -10.7472 384.62 -18.1747 379.815C-25.7797 375.167 -33.3293 370.496 -40.7526 365.828C-48.3366 361.277 -55.8035 356.692 -63.0753 352.065C-70.4391 347.511 -77.591 342.877 -84.4559 338.128C-91.3341 333.401 -97.7129 328.631 -103.566 323.814C-109.347 318.938 -114.554 313.984 -119.166 308.94C-125.564 301.158 -134.982 284.826 -137.979 276.247C-140.108 267.291 -141.218 248.427 -140.335 238.523C-139.485 231.678 -138.18 224.679 -136.473 217.548C-134.727 210.198 -132.62 202.698 -130.215 195.077C-127.813 187.236 -125.146 179.266 -122.232 171.207C-119.376 162.949 -116.296 154.631 -113.017 146.296C-109.772 137.844 -106.324 129.429 -102.654 121.12C-98.9908 112.802 -95.0811 104.672 -90.917 96.8097C-86.6611 89.0683 -82.1135 81.6947 -77.2463 74.7542C-72.234 68.0395 -66.8678 61.8329 -61.1357 56.1962C-55.227 50.8345 -48.946 46.0524 -42.3028 41.8563C-35.5117 37.9121 -28.3996 34.511 -21.0015 31.62C-13.5243 28.8309 -6.01649 26.5215 1.48131 24.6071C8.92864 22.614 16.2966 20.9079 23.5409 19.4198C30.6528 17.7254 37.5997 16.2064 44.3789 14.8366C54.2101 12.4506 72.8445 8.13061 81.7361 6.3341C90.4362 4.56343 107.635 2.56667 116.234 2.49775C125.014 2.88208 143.077 5.94905 152.378 8.63524C158.778 10.6303 165.243 13.028 171.75 15.8151C178.45 18.6443 185.174 21.8335 191.915 25.3306C198.836 28.8502 205.74 32.6448 212.61 36.7109C219.63 40.7504 226.597 45.0318 233.463 49.5027C240.453 53.9497 247.323 58.5987 254.016 63.4033C260.805 68.187 267.388 73.1452 273.729 78.2449C280.121 83.3391 286.217 88.5966 291.992 94.004" stroke="url(#paint7_linear_1_10)" stroke-width="2.91875" stroke-linecap="round" stroke-dasharray="16.34 21.01"/>
<path opacity="0.35" d="M278.31 109.763C285.504 117.465 297.648 133.166 302.552 141.178C308.588 152.062 312.791 163.307 315.307 174.91C317.576 187.027 318.33 199.808 317.807 213.32C317.273 227.668 315.697 242.977 313.299 259.109C310.965 276.023 307.767 293.449 303.634 310.784C299.126 327.833 293.192 343.703 285.588 357.458C276.845 369.402 266.035 378.382 253.221 384.083C246.41 386.236 239.185 387.725 231.61 388.593C223.95 389.309 216.083 389.632 208.093 389.689C200.213 389.965 192.557 390.21 185.186 390.535C178.102 391.369 171.376 392.389 165.033 393.637C153.348 397.913 143.018 402.767 133.819 407.655C125.189 413.603 116.856 418.245 108.549 421.025C99.7497 423.265 90.4429 423.004 80.6334 420.347C69.9263 416.855 58.6591 411.295 47.0543 404.156C34.5637 396.752 21.8242 388.309 9.0761 379.255C-4.42386 370.435 -17.8315 361.256 -30.851 351.886C-37.5535 347.323 -44.1339 342.69 -50.5229 338.018C-56.999 333.381 -63.2486 328.67 -69.2356 323.878C-75.2429 319.098 -80.7853 314.312 -85.8584 309.502C-90.8805 304.664 -95.3984 299.77 -99.3947 294.851C-107.081 284.747 -112.579 274.297 -115.959 263.514C-118.823 252.174 -119.662 240.338 -118.694 228.049C-117.4 215.027 -114.569 201.451 -110.468 187.468C-106.29 172.787 -101.046 157.787 -94.8589 142.82C-88.6212 127.61 -81.3832 112.869 -73.1491 99.1622C-64.5482 86.0126 -54.732 74.4299 -43.6893 64.8631C-37.9477 60.4716 -31.8986 56.6036 -25.552 53.2649C-19.0898 50.1558 -12.3587 47.5251 -5.38496 45.374C1.64029 43.3145 8.69143 41.6824 15.7183 40.4122C22.7063 39.0968 29.6389 38.0402 36.4468 37.2145C49.7829 34.97 62.5731 33.327 74.6922 32.1817C86.395 30.1052 97.641 28.7407 108.48 28.248C119.297 27.312 130.034 27.6396 140.732 29.3282C151.808 31.0457 163.046 34.2659 174.341 38.9C186.192 43.6641 198.126 49.7206 209.899 56.8721C222.185 64.0562 234.209 72.1783 245.669 81.0856C251.508 85.5183 257.178 90.1265 262.626 94.9127C268.111 99.6918 273.352 104.634 278.304 109.753" stroke="url(#paint8_linear_1_10)" stroke-width="2.91875" stroke-linecap="round" stroke-dasharray="29.19 15.18"/>
<path opacity="0.89" d="M265.113 126.815C273.501 136.443 280.419 146.463 285.872 156.78C291.124 167.273 294.888 178.257 297.279 189.702C299.468 201.557 300.375 214.087 300.148 227.249C299.805 240.972 298.437 255.39 296.12 270.231C293.658 285.39 290.172 300.579 285.601 315.219C280.55 329.274 274.12 341.937 266.202 352.558C257.429 361.608 247.016 368.146 235.092 371.979C222.538 374.572 208.908 375.249 194.666 374.561C180.766 374.603 167.633 374.674 155.571 375.237C144.439 377.683 134.346 380.611 125.192 383.679C116.563 387.907 108.35 391.36 100.369 393.611C92.1797 395.78 83.7745 396.146 75.1228 394.619C65.845 392.553 56.1529 388.676 46.2003 383.251C35.5095 377.51 24.57 370.591 13.5877 362.785C1.98881 355.018 -9.55665 346.642 -20.7737 337.82C-32.3894 329.166 -43.4732 320.084 -53.6758 310.625C-63.9415 301.197 -72.5821 291.665 -79.5195 282.032C-86.1726 272.182 -91.0107 262.033 -94.0655 251.626C-96.7503 240.778 -97.7126 229.495 -97.1254 217.847C-96.2349 205.648 -93.9613 193.01 -90.4736 180.118C-86.8141 166.779 -82.0413 153.327 -76.2786 140.093C-70.3279 126.846 -63.3342 114.221 -55.3492 102.671C-46.9895 91.7314 -37.5124 82.286 -26.9788 74.6637C-16.0003 67.9284 -4.00165 62.9949 8.84464 59.8821C21.8701 57.1106 34.8657 55.6912 47.5691 55.2451C60.0277 54.2429 72.0575 53.8002 83.5239 53.8006C94.6807 52.9519 105.404 52.6521 115.697 52.9639C125.918 52.7267 135.957 53.4222 145.792 55.139C155.863 56.7016 165.938 59.4705 175.932 63.4342C186.318 67.402 196.675 72.5653 206.834 78.7864C217.362 85.0219 227.625 92.231 237.399 100.302C247.376 108.338 256.697 117.187 265.107 126.805" stroke="url(#paint9_linear_1_10)" stroke-width="2.91875" stroke-linecap="round" stroke-dasharray="25.68 22.18"/>
<path opacity="0.88" d="M252.312 146.086C259.34 155.074 265.161 164.564 269.792 174.447C274.267 184.472 277.517 195.019 279.605 206.024C281.517 217.305 282.303 229.13 282.043 241.391C281.611 253.937 280.156 266.821 277.714 279.762C275.017 292.67 271.266 305.232 266.411 316.964C261.119 327.98 254.582 337.617 246.8 345.383C238.427 351.914 228.78 356.384 218.005 358.692C206.859 360.169 194.888 360.117 182.426 358.917C170.191 358.292 158.472 357.541 147.501 357.036C137.124 357.99 127.504 359.274 118.606 360.713C110.109 363.237 102.044 365.341 94.2967 366.719C86.4899 368.348 78.6809 368.727 70.825 367.747C62.5776 366.526 54.1128 363.839 45.512 359.793C36.3941 355.506 27.0971 350.03 17.7952 343.569C8.02004 337.065 -1.68825 329.749 -11.0846 321.785C-20.8008 313.904 -30.0613 305.415 -38.5834 296.392C-47.1377 287.382 -54.3701 278.176 -60.1995 268.816C-65.8313 259.323 -69.9668 249.537 -72.6464 239.511C-75.0349 229.212 -75.9844 218.543 -75.5931 207.631C-74.9312 196.367 -73.0218 184.849 -69.9709 173.248C-66.7017 161.443 -62.3449 149.729 -56.9942 138.398C-51.3939 127.241 -44.7907 116.792 -37.2316 107.425C-29.3477 98.6565 -20.4802 91.2489 -10.6821 85.4394C-0.579013 80.3629 10.4044 76.8548 22.0902 74.9134C33.9123 73.2692 45.7187 72.833 57.2965 73.2759C68.7299 73.3109 79.8478 73.8946 90.5182 74.892C100.986 75.1898 111.085 75.9068 120.78 77.0825C130.393 77.6978 139.773 78.9667 148.871 80.9854C158.097 82.7357 167.196 85.3983 176.099 89.0155C185.254 92.5403 194.272 97.071 203.044 102.563C212.044 108.024 220.768 114.434 229.023 121.723C237.417 128.979 245.248 137.101 252.312 146.086Z" stroke="url(#paint10_linear_1_10)" stroke-width="2.91875" stroke-linecap="round" stroke-dasharray="10.51 24.52"/>
<path opacity="0.78" d="M239.151 167.18C244.937 175.475 249.714 184.282 253.481 193.49C257.142 202.785 259.754 212.545 261.373 222.651C262.828 232.888 263.284 243.486 262.782 254.245C262.082 265.073 260.414 275.929 257.795 286.536C254.921 296.91 251.042 306.708 246.183 315.573C240.967 323.772 234.7 330.692 227.433 336.02C219.781 340.457 211.176 343.259 201.721 344.404C192.059 345.028 181.75 344.431 171.024 342.891C160.442 341.796 150.17 340.457 140.39 339.181C130.968 338.967 122.047 338.912 113.655 338.957C105.527 339.937 97.7535 340.693 90.3105 341.014C82.877 341.751 75.5469 341.685 68.311 340.684C60.8574 339.698 53.3555 337.615 45.8644 334.428C38.0284 331.139 30.1485 326.801 22.3402 321.5C14.2174 316.147 6.20092 309.928 -1.50838 302.96C-9.44635 296.009 -16.9769 288.348 -23.8851 280.024C-30.8264 271.712 -36.6752 263.093 -41.3933 254.278C-45.9647 245.387 -49.3291 236.199 -51.5109 226.821C-53.4622 217.288 -54.2132 207.51 -53.8213 197.606C-53.195 187.558 -51.4662 177.41 -48.7132 167.362C-45.7277 157.307 -41.7418 147.498 -36.8222 138.203C-31.6736 129.175 -25.5843 120.894 -18.6356 113.624C-11.4358 106.898 -3.36673 101.352 5.46707 97.1837C14.5266 93.5921 24.313 91.305 34.7199 90.3719C45.2075 89.6702 55.7021 90.0171 66.0415 91.1599C76.2959 92.0233 86.3435 93.4286 96.0678 95.2187C105.659 96.4863 114.972 98.1232 123.923 100.109C132.816 101.607 141.465 103.575 149.811 106.093C158.215 108.281 166.422 111.144 174.362 114.731C182.432 118.161 190.3 122.392 197.857 127.435C205.546 132.395 212.926 138.205 219.84 144.845C226.839 151.443 233.329 158.886 239.151 167.18Z" stroke="url(#paint11_linear_1_10)" stroke-width="2.91875" stroke-linecap="round" stroke-dasharray="23.35 3.5"/>
<path opacity="0.7" d="M224.651 188.413C229.291 195.906 233.043 203.822 235.944 212.028C238.761 220.282 240.681 228.839 241.731 237.582C242.663 246.335 242.702 255.233 241.897 264.066C240.922 272.814 239.068 281.375 236.374 289.495C233.474 297.321 229.71 304.494 225.107 310.765C220.28 316.505 214.6 321.164 208.135 324.553C201.464 327.346 194.051 328.892 186.006 329.198C177.853 329.207 169.188 328.269 160.145 326.553C151.187 325.14 142.39 323.439 133.897 321.651C125.6 320.597 117.597 319.556 109.953 318.535C102.458 318.211 95.2385 317.749 88.2829 317.017C81.3555 316.727 74.5764 315.933 67.9682 314.545C61.2428 313.299 54.5892 311.281 48.0523 308.476C41.323 305.678 34.6576 302.036 28.1588 297.571C21.4643 293.1 14.9539 287.824 8.75742 281.817C2.41663 275.813 -3.53331 269.092 -8.94651 261.697C-14.3822 254.308 -18.9192 246.578 -22.5257 238.621C-26.0536 230.642 -28.5949 222.419 -30.1689 214.055C-31.5856 205.646 -32.0095 197.101 -31.4872 188.554C-30.7724 180.001 -29.1211 171.498 -26.5642 163.235C-23.831 155.08 -20.2084 147.279 -15.772 140.036C-11.1565 133.082 -5.7194 126.841 0.460292 121.506C6.81566 116.619 13.8879 112.718 21.6141 109.966C29.484 107.634 37.9631 106.379 46.9536 106.242C56.0096 106.292 65.0993 107.23 74.0805 108.855C83.0315 110.33 91.8454 112.306 100.434 114.686C108.962 116.682 117.278 119.042 125.301 121.691C133.302 123.97 141.066 126.608 148.554 129.64C156.055 132.377 163.33 135.603 170.305 139.351C177.35 142.921 184.132 147.1 190.571 151.91C197.089 156.613 203.257 162.01 208.966 168.096C214.725 174.143 219.996 180.911 224.651 188.413Z" stroke="url(#paint12_linear_1_10)" stroke-width="2.91875" stroke-linecap="round" stroke-dasharray="10.51 10.51"/>
<path opacity="0.89" d="M208.076 207.297C215.178 220.421 219.213 234.487 220.337 248.587C221.116 262.585 218.853 276.131 213.806 287.903C208.255 298.697 199.864 306.761 189.055 311.031C177.847 313.93 164.471 313.412 149.612 309.813C134.954 307.067 120.615 303.329 107.205 299.362C94.089 297.315 81.561 294.468 69.9192 290.385C58.0412 287.071 46.588 281.571 36.1055 273.703C25.1505 265.917 15.1765 255.593 7.09006 242.938C-1.06733 230.287 -6.14661 216.524 -8.16878 202.527C-9.78198 188.595 -8.17106 174.642 -3.6067 161.77C1.45991 149.492 9.42496 138.964 19.8797 131.364C30.7336 125.028 43.9238 121.953 58.8989 122.62C74.0001 123.857 89.2423 127.729 103.845 133.25C118.352 137.907 132.311 143.869 145.176 150.886C158.104 157.052 170.166 164.761 180.781 174.094C191.553 183.106 200.915 194.175 208.076 207.297Z" stroke="url(#paint13_linear_1_10)" stroke-width="2.91875" stroke-linecap="round" stroke-dasharray="2.34 2.34"/>
<path opacity="0.2" d="M189.328 221.359C194.505 232.259 197.13 243.319 197.425 253.854C197.516 264.233 195.195 273.722 190.71 281.441C185.972 288.539 179.092 293.414 170.42 295.526C161.582 296.967 151.107 295.939 139.429 292.574C127.836 289.739 116.275 285.776 105.269 281.297C94.3683 277.985 83.8442 273.926 74.0926 269.081C64.2279 264.858 54.9109 259.257 46.6204 252.168C38.1122 245.196 30.6262 236.488 24.8679 226.167C19.0502 215.843 15.7219 204.896 14.7902 194.072C14.0669 183.369 15.8482 173.021 19.9024 163.87C24.2491 155.215 30.8376 148.151 39.3309 143.455C48.0477 139.562 58.5629 138.183 70.4944 139.663C82.4984 141.522 94.6734 145.552 106.425 150.999C118.158 156.034 129.502 162.255 139.954 169.329C150.445 175.912 160.153 183.578 168.518 192.239C176.981 200.696 184.126 210.452 189.328 221.359Z" stroke="url(#paint14_linear_1_10)" stroke-width="2.91875" stroke-linecap="round" stroke-dasharray="12.84 9.34"/>
<path opacity="0.29" d="M168.934 228.901C172.394 237.295 173.927 245.307 173.723 252.497C172.431 262.636 161.546 275.98 152.505 278.145C146.002 278.705 138.318 277.553 129.71 274.675C121.12 272.101 112.456 268.442 104.117 264.165C95.7896 260.461 87.6983 256.076 80.2317 251.136C72.698 246.578 65.6889 241.169 59.6343 234.984C53.4613 228.905 48.245 221.837 44.4467 213.935C40.6136 206.036 38.6728 198.053 38.4957 190.455C39.2497 179.514 49.4208 162.569 58.3705 157.984C64.875 155.923 72.6769 155.678 81.53 157.487C90.4077 159.539 99.4373 163.22 108.194 168.042C116.938 172.725 125.43 178.418 133.226 184.769C141.036 190.907 148.206 197.801 154.29 205.204C160.411 212.521 165.45 220.509 168.934 228.901Z" stroke="url(#paint15_linear_1_10)" stroke-width="2.91875" stroke-linecap="round" stroke-dasharray="4.67 30.36"/>
<path opacity="0.67" d="M147.827 229.616C151.323 245.491 136.457 260.094 120.759 256.023C109.499 252.177 97.8464 245.052 87.9739 236.616C77.987 228.803 69.6197 218.901 65.2819 208.109C60.9095 197.329 61.5959 187.661 66.3293 181.19C71.199 175.192 80.0713 173.014 91.6318 176.216C103.221 179.838 115.243 187.695 125.342 197.373C135.48 206.85 143.77 218.262 147.827 229.616Z" stroke="url(#paint16_linear_1_10)" stroke-width="2.91875" stroke-linecap="round" stroke-dasharray="28.02 3.5"/>
</g>
<defs>
<linearGradient id="paint0_linear_1_10" x1="319.259" y1="-85.8451" x2="-103.773" y2="548.377" gradientUnits="userSpaceOnUse">
<stop stop-color="#1F89DB"/>
<stop offset="1" stop-color="#F42A8B"/>
</linearGradient>
<linearGradient id="paint1_linear_1_10" x1="324.293" y1="-56.8903" x2="-110.13" y2="518.06" gradientUnits="userSpaceOnUse">
<stop stop-color="#1F89DB"/>
<stop offset="1" stop-color="#F42A8B"/>
</linearGradient>
<linearGradient id="paint2_linear_1_10" x1="326.684" y1="-28.4493" x2="-113.691" y2="488.177" gradientUnits="userSpaceOnUse">
<stop stop-color="#1F89DB"/>
<stop offset="1" stop-color="#F42A8B"/>
</linearGradient>
<linearGradient id="paint3_linear_1_10" x1="326.523" y1="-0.730202" x2="-114.522" y2="458.949" gradientUnits="userSpaceOnUse">
<stop stop-color="#1F89DB"/>
<stop offset="1" stop-color="#F42A8B"/>
</linearGradient>
<linearGradient id="paint4_linear_1_10" x1="323.817" y1="26.0194" x2="-112.786" y2="430.528" gradientUnits="userSpaceOnUse">
<stop stop-color="#1F89DB"/>
<stop offset="1" stop-color="#F42A8B"/>
</linearGradient>
<linearGradient id="paint5_linear_1_10" x1="318.698" y1="51.5694" x2="-108.56" y2="403.078" gradientUnits="userSpaceOnUse">
<stop stop-color="#1F89DB"/>
<stop offset="1" stop-color="#F42A8B"/>
</linearGradient>
<linearGradient id="paint6_linear_1_10" x1="311.326" y1="75.7857" x2="-101.919" y2="376.843" gradientUnits="userSpaceOnUse">
<stop stop-color="#1F89DB"/>
<stop offset="1" stop-color="#F42A8B"/>
</linearGradient>
<linearGradient id="paint7_linear_1_10" x1="301.362" y1="98.9207" x2="-92.3309" y2="351.703" gradientUnits="userSpaceOnUse">
<stop stop-color="#1F89DB"/>
<stop offset="1" stop-color="#F42A8B"/>
</linearGradient>
<linearGradient id="paint8_linear_1_10" x1="290.428" y1="119.603" x2="-81.6543" y2="328.691" gradientUnits="userSpaceOnUse">
<stop stop-color="#1F89DB"/>
<stop offset="1" stop-color="#F42A8B"/>
</linearGradient>
<linearGradient id="paint9_linear_1_10" x1="277.266" y1="139.09" x2="-68.4715" y2="307.441" gradientUnits="userSpaceOnUse">
<stop stop-color="#1F89DB"/>
<stop offset="1" stop-color="#F42A8B"/>
</linearGradient>
<linearGradient id="paint10_linear_1_10" x1="262.39" y1="156.545" x2="-53.5347" y2="288.004" gradientUnits="userSpaceOnUse">
<stop stop-color="#1F89DB"/>
<stop offset="1" stop-color="#F42A8B"/>
</linearGradient>
<linearGradient id="paint11_linear_1_10" x1="246.082" y1="171.955" x2="-36.9396" y2="270.637" gradientUnits="userSpaceOnUse">
<stop stop-color="#1F89DB"/>
<stop offset="1" stop-color="#F42A8B"/>
</linearGradient>
<linearGradient id="paint12_linear_1_10" x1="228.498" y1="185.201" x2="-18.8903" y2="255.447" gradientUnits="userSpaceOnUse">
<stop stop-color="#1F89DB"/>
<stop offset="1" stop-color="#F42A8B"/>
</linearGradient>
<linearGradient id="paint13_linear_1_10" x1="209.794" y1="196.388" x2="0.451549" y2="242.728" gradientUnits="userSpaceOnUse">
<stop stop-color="#1F89DB"/>
<stop offset="1" stop-color="#F42A8B"/>
</linearGradient>
<linearGradient id="paint14_linear_1_10" x1="190.227" y1="204.982" x2="20.6969" y2="232.17" gradientUnits="userSpaceOnUse">
<stop stop-color="#1F89DB"/>
<stop offset="1" stop-color="#F42A8B"/>
</linearGradient>
<linearGradient id="paint15_linear_1_10" x1="169.956" y1="211.202" x2="41.7285" y2="224.093" gradientUnits="userSpaceOnUse">
<stop stop-color="#1F89DB"/>
<stop offset="1" stop-color="#F42A8B"/>
</linearGradient>
<linearGradient id="paint16_linear_1_10" x1="147.516" y1="213.918" x2="63.2898" y2="217.405" gradientUnits="userSpaceOnUse">
<stop stop-color="#1F89DB"/>
<stop offset="1" stop-color="#F42A8B"/>
</linearGradient>
<clipPath id="clip0_1_10">
<rect width="934" height="934" fill="white" transform="translate(-362 -246)"/>
</clipPath>
</defs>
</svg>
